<svg xmlns="http://www.w3.org/2000/svg" width="999" height="749" viewBox="0 0 999 749" fill="none">
    <path d="M718.942 495.737C673.277 378.889 636.056 500.869 651.336 385.847C573.202 432.116 620.769 386.802 555.912 380.825C576.723 364.885 547.114 353.647 542.588 340.434C543.325 336.346 530.394 324.698 535.91 326.321C541.244 322.31 529.215 319.332 527.833 315.299C524.07 301.219 544.15 311.49 533.717 298.271C531.101 280.793 561.836 283.112 557.075 268.467C553.376 225.558 596.985 201.686 632.358 198.12C638.161 202.048 643.041 184.048 650.322 191.966C652.386 187.008 651.683 193.899 654.854 190.152C656.071 189.269 657.404 190.38 658.422 191.009C661.385 187.865 659.06 196.7 663.372 196.263C664.737 199.295 665.085 193.558 667.287 194.278C670.681 201.11 675.456 193.398 670.399 189.681C653.386 171.092 664.708 184.58 646.503 177.178C659.173 142.03 687.734 141.03 642.984 123.57C635.791 112.494 624.325 131.522 620.275 123.893C604.55 107.112 604.389 135.499 575.789 124.537C572.844 131.195 573.397 123.334 571.542 127.003C564.255 128.073 563.838 124.302 557.758 123.448C553.359 116.83 560.695 118.898 557.079 108.977C557.228 99.3024 542.568 108.476 544.185 98.0304C547.769 84.3324 528.423 85.0864 523.935 75.9124C521.323 79.1706 514.778 73.7028 514.501 70.6981C518.245 60.5204 484.379 34.0995 474.978 45.9849C456.944 38.9405 482.629 57.7179 481.197 62.9672C478.171 64.7486 481.046 71.9839 482.025 74.5467C471.843 72.824 473.808 84.2513 470.252 94.4352C453.382 136.41 391.069 131.363 376.337 165.206C370.482 170.348 372.181 150.971 366.502 173.834C361.989 185.926 349.476 234.076 332.058 217.023C323.76 207.015 331.135 200.415 314.694 201.361C305.464 194.498 304.078 193.981 296.037 201.877C284.611 202.628 301.107 191.169 295.378 192.315C291.561 194.58 290.422 187.82 291.737 185.45C296.386 183.546 307.011 185.223 301.352 175.815C304.717 141.3 240.839 204.659 270.91 223.278C256.98 229.48 280.771 234.016 278.271 248.242C244.292 262.227 321.25 280.393 323.552 303.691C330.638 332.264 361.409 349.932 359.87 372.772C366.921 384.679 388.911 426.763 395.322 448.408C393.566 457.202 415.552 455.024 412.515 478.914C420.465 488.51 462.017 537.817 441.228 544.356C437.308 553.358 446.728 542.358 444.117 557.003C472.574 619.768 586.118 635.467 621.567 690.745C641.925 702.567 681.232 738.385 678.082 689.385C683.952 690.869 692.379 683.445 688.256 677.706C674.798 674.582 707.502 655.294 706.428 649.217C703.047 639.376 720.544 641.28 710.637 636.714C702.628 629.793 703.321 644.186 695.856 622.605C687.499 610.561 698.323 604.086 701.482 597.02C682.113 582.861 708.195 572.391 707.13 561.567C717.446 558.558 706.684 545.482 704.024 539.322C715.544 533.712 701.865 511.815 712.903 504.938C722.125 500.947 711.146 504.663 718.942 495.737Z" fill="#578757"/>
    <path d="M383.064 338.564C388.683 332.595 393.637 326.002 397.568 318.857C399.561 315.299 401.265 311.599 402.839 307.823C403.641 305.937 404.391 304.03 405.334 302.127C405.84 301.183 406.33 300.21 407.249 299.327C407.722 298.913 408.346 298.468 409.112 298.4C409.858 298.267 410.634 298.501 411.248 298.871C412.427 299.669 412.939 300.686 413.5 301.616C414.037 302.566 414.46 303.512 414.9 304.454C415.759 306.337 416.582 308.195 417.475 310.015C418.337 311.849 419.293 313.624 420.289 315.373C421.26 317.137 422.336 318.837 423.462 320.505C425.713 323.844 428.25 327.002 430.986 330.004C432.35 331.51 433.78 332.962 435.257 334.371C436.705 335.814 438.238 337.171 439.764 338.553L439.614 338.753C437.854 337.674 436.177 336.467 434.514 335.235C432.879 333.968 431.293 332.631 429.755 331.235C426.672 328.446 423.903 325.301 421.417 321.938C420.218 320.224 419.071 318.47 418.032 316.653C417.006 314.831 416.081 312.955 415.232 311.057C414.389 309.157 413.622 307.231 412.85 305.349C412.458 304.416 412.076 303.471 411.633 302.616C411.201 301.778 410.696 300.911 410.153 300.544C409.636 300.219 409.112 300.243 408.521 300.746C407.929 301.265 407.411 302.125 406.936 302.972C406.002 304.719 405.186 306.612 404.325 308.477C402.626 312.226 400.778 315.941 398.648 319.485C394.37 326.564 389.111 332.993 383.241 338.741L383.064 338.564Z" fill="#D6D6D6"/>
    <path d="M421.883 318.904C426.424 313.744 430.38 308.079 433.495 301.998C435.078 298.971 436.424 295.836 437.668 292.641C438.302 291.043 438.892 289.431 439.637 287.808C440.038 286.998 440.407 286.174 441.137 285.369C441.354 285.177 441.553 284.974 441.813 284.807C442.107 284.661 442.377 284.475 442.734 284.439C443.411 284.262 444.154 284.484 444.695 284.822C445.746 285.552 446.145 286.428 446.612 287.224C447.05 288.037 447.393 288.838 447.749 289.636C448.444 291.23 449.107 292.798 449.823 294.337C451.235 297.419 452.8 300.395 454.591 303.245C456.368 306.104 458.395 308.818 460.578 311.424C461.665 312.731 462.813 313.995 464.002 315.224C465.161 316.487 466.399 317.675 467.624 318.894L467.47 319.09C466.001 318.167 464.614 317.125 463.233 316.066C461.881 314.972 460.574 313.819 459.308 312.615C456.77 310.21 454.514 307.502 452.502 304.615C451.528 303.149 450.62 301.637 449.779 300.093C448.966 298.534 448.229 296.937 447.558 295.326C446.895 293.712 446.292 292.079 445.684 290.487C445.377 289.697 445.073 288.901 444.726 288.181C444.391 287.48 443.977 286.748 443.595 286.487C443.249 286.289 442.993 286.253 442.51 286.693C442.05 287.147 441.643 287.889 441.267 288.606C440.522 290.085 439.865 291.686 439.172 293.263C437.803 296.434 436.313 299.583 434.595 302.598C431.135 308.619 426.868 314.129 422.069 319.078L421.883 318.904Z" fill="#D6D6D6"/>
    <path d="M434.154 360.458C438.844 353.573 442.759 346.183 445.795 338.467C447.343 334.62 448.641 330.682 449.837 326.7C450.444 324.709 451.01 322.707 451.69 320.694C452.041 319.687 452.396 318.678 452.973 317.652C453.279 317.148 453.611 316.596 454.309 316.14C454.657 315.914 455.137 315.776 455.599 315.792C456.076 315.797 456.517 315.997 456.861 316.223C457.512 316.705 457.844 317.249 458.146 317.757C458.442 318.271 458.666 318.778 458.878 319.284C459.295 320.294 459.642 321.294 459.98 322.29L461.971 328.202C462.638 330.157 463.364 332.083 464.129 333.989C464.873 335.904 465.685 337.789 466.578 339.634C468.294 343.363 470.334 346.939 472.548 350.42C473.657 352.161 474.841 353.858 476.086 355.515C477.296 357.203 478.608 358.813 479.916 360.444L479.736 360.617C478.148 359.249 476.667 357.761 475.209 356.244C473.785 354.699 472.426 353.089 471.127 351.426C468.535 348.096 466.27 344.501 464.335 340.733C463.382 338.84 462.513 336.906 461.718 334.948C460.94 332.98 460.264 330.979 459.622 328.977L457.848 322.965C457.554 321.975 457.254 320.993 456.909 320.063C456.585 319.161 456.116 318.183 455.701 317.851C455.524 317.747 455.499 317.733 455.315 317.812C455.122 317.913 454.838 318.248 454.61 318.626C454.137 319.402 453.753 320.357 453.395 321.306C452.682 323.222 452.051 325.216 451.384 327.193C450.063 331.158 448.63 335.108 446.948 338.947C443.568 346.622 439.33 353.896 434.359 360.602L434.154 360.458Z" fill="#D6D6D6"/>
    <path d="M428.722 390.068C433.412 383.183 437.327 375.793 440.363 368.077C441.911 364.23 443.209 360.293 444.405 356.311C445.012 354.319 445.578 352.317 446.258 350.305C446.609 349.297 446.964 348.289 447.541 347.263C447.847 346.758 448.179 346.205 448.877 345.751C449.225 345.525 449.705 345.386 450.167 345.403C450.644 345.408 451.085 345.607 451.429 345.833C452.08 346.315 452.412 346.859 452.714 347.367C453.01 347.882 453.234 348.389 453.446 348.894C453.863 349.904 454.21 350.904 454.548 351.9L456.539 357.812C457.206 359.767 457.932 361.693 458.697 363.6C459.441 365.514 460.253 367.399 461.146 369.245C462.862 372.973 464.902 376.55 467.116 380.03C468.225 381.772 469.409 383.468 470.653 385.126C471.863 386.814 473.175 388.424 474.483 390.054L474.303 390.228C472.714 388.86 471.233 387.372 469.776 385.855C468.351 384.309 466.993 382.699 465.694 381.036C463.101 377.707 460.836 374.112 458.902 370.343C457.949 368.451 457.08 366.517 456.285 364.558C455.507 362.591 454.831 360.59 454.189 358.587L452.415 352.576C452.121 351.586 451.82 350.603 451.476 349.673C451.152 348.772 450.683 347.793 450.268 347.461C450.091 347.357 450.066 347.344 449.882 347.422C449.689 347.523 449.405 347.858 449.177 348.236C448.703 349.013 448.32 349.968 447.962 350.916C447.249 352.833 446.618 354.826 445.951 356.804C444.63 360.768 443.196 364.718 441.514 368.558C438.135 376.233 433.897 383.507 428.926 390.213L428.722 390.068Z" fill="#D6D6D6"/>
    <path d="M439.58 422.597C443.206 415.551 446.112 408.16 448.339 400.588C449.48 396.809 450.428 392.978 451.298 389.119C451.738 387.189 452.151 385.253 452.631 383.303C452.877 382.327 453.129 381.351 453.5 380.348C453.696 379.845 453.893 379.336 454.309 378.778C454.524 378.512 454.804 378.176 455.36 377.992C455.902 377.799 456.575 377.979 456.936 378.265C457.669 378.843 457.849 379.385 458.11 379.892C458.34 380.402 458.509 380.895 458.673 381.388C458.991 382.371 459.254 383.341 459.51 384.307L461.012 390.054C461.508 391.959 462.049 393.847 462.616 395.722C463.161 397.603 463.751 399.469 464.411 401.309C465.673 405.012 467.172 408.632 468.837 412.188C470.515 415.74 472.436 419.184 474.496 422.582L474.295 422.731C469.014 416.745 464.982 409.648 462.066 402.167C461.356 400.287 460.719 398.381 460.129 396.463C459.56 394.539 459.079 392.595 458.615 390.653L457.34 384.836C457.126 383.877 456.906 382.922 456.65 382.007C456.519 381.556 456.383 381.104 456.221 380.704C456.077 380.32 455.83 379.915 455.765 379.883C455.736 379.872 455.879 379.915 455.942 379.878C456.016 379.835 455.929 379.873 455.84 379.99C455.649 380.22 455.443 380.631 455.274 381.045C454.93 381.891 454.65 382.829 454.384 383.768C453.857 385.653 453.381 387.581 452.879 389.502C451.884 393.35 450.804 397.19 449.533 400.966C446.966 408.508 443.73 415.815 439.804 422.717L439.58 422.597Z" fill="#D6D6D6"/>
    <path d="M462.46 444.453C468.174 437.734 473.126 430.378 477.022 422.511C478.999 418.591 480.679 414.539 482.231 410.418C483.02 408.36 483.756 406.283 484.669 404.207C485.147 403.172 485.609 402.123 486.461 401.116C486.665 400.865 486.963 400.631 487.219 400.399C487.561 400.218 487.882 399.972 488.295 399.904C489.095 399.655 490.021 399.874 490.658 400.317C491.906 401.218 492.413 402.325 492.964 403.343C493.487 404.38 493.917 405.414 494.345 406.442C495.192 408.5 495.998 410.537 496.876 412.537C497.73 414.547 498.66 416.513 499.645 418.448C500.611 420.391 501.652 422.296 502.792 424.141C505.016 427.869 507.568 431.408 510.337 434.791C511.717 436.486 513.173 438.126 514.684 439.719C516.163 441.346 517.739 442.884 519.311 444.44L519.152 444.633C517.33 443.367 515.601 441.97 513.894 440.542C512.217 439.08 510.599 437.546 509.038 435.949C505.91 432.758 503.128 429.221 500.671 425.462C499.463 423.568 498.356 421.611 497.327 419.616C496.319 417.611 495.428 415.553 494.591 413.484C493.768 411.411 493.024 409.314 492.262 407.259C491.879 406.235 491.494 405.215 491.056 404.264C490.63 403.332 490.098 402.379 489.537 401.972C489.273 401.785 489.028 401.717 488.754 401.799C488.615 401.79 488.485 401.928 488.331 401.971C488.188 402.117 488.028 402.209 487.88 402.382C487.271 403.043 486.771 404.016 486.309 404.968C485.389 406.909 484.586 408.975 483.738 411.015C482.062 415.111 480.24 419.178 478.129 423.086C473.886 430.896 468.621 438.106 462.646 444.618L462.46 444.453Z" fill="#D6D6D6"/>
    <path d="M476.613 476.611C481.303 469.727 485.218 462.336 488.254 454.621C489.802 450.773 491.1 446.836 492.296 442.854C492.903 440.863 493.469 438.862 494.149 436.848C494.5 435.841 494.855 434.832 495.432 433.806C495.738 433.301 496.07 432.748 496.768 432.294C497.116 432.068 497.596 431.93 498.058 431.946C498.535 431.951 498.976 432.151 499.32 432.376C499.971 432.858 500.303 433.403 500.605 433.911C500.901 434.425 501.125 434.932 501.337 435.437C501.754 436.447 502.101 437.447 502.438 438.443L504.43 444.355C505.097 446.31 505.822 448.237 506.588 450.143C507.332 452.058 508.144 453.943 509.037 455.788C510.752 459.516 512.793 463.093 515.007 466.573C516.116 468.315 517.3 470.011 518.545 471.669C519.755 473.357 521.067 474.967 522.375 476.597L522.195 476.771C520.606 475.403 519.125 473.915 517.668 472.398C516.243 470.853 514.885 469.242 513.586 467.579C510.993 464.25 508.728 460.655 506.794 456.886C505.841 454.994 504.972 453.06 504.177 451.101C503.399 449.134 502.723 447.133 502.081 445.131L500.307 439.119C500.013 438.129 499.712 437.146 499.368 436.216C499.044 435.315 498.575 434.336 498.16 434.004C497.983 433.901 497.958 433.887 497.774 433.966C497.581 434.067 497.297 434.401 497.069 434.78C496.595 435.556 496.212 436.511 495.854 437.46C495.141 439.376 494.51 441.369 493.843 443.347C492.522 447.312 491.088 451.261 489.406 455.101C486.027 462.776 481.789 470.05 476.818 476.756L476.613 476.611Z" fill="#D6D6D6"/>
    <path d="M535.481 515.72C540.496 508.888 544.735 501.505 548.034 493.741C549.716 489.872 551.128 485.899 552.432 481.874C553.094 479.862 553.712 477.838 554.46 475.805C554.848 474.789 555.238 473.769 555.89 472.741C556.226 472.241 556.634 471.68 557.403 471.298C558.159 470.893 559.248 471.03 559.888 471.515C560.536 471.977 560.896 472.518 561.216 473.027C561.53 473.543 561.774 474.053 561.999 474.563C562.448 475.581 562.822 476.591 563.186 477.597C563.909 479.61 564.597 481.601 565.343 483.566C566.066 485.538 566.855 487.475 567.685 489.392C568.501 491.314 569.379 493.208 570.35 495.053C572.221 498.783 574.422 502.349 576.813 505.8C578.008 507.527 579.278 509.206 580.608 510.843C581.904 512.511 583.301 514.099 584.693 515.704L584.521 515.884C582.858 514.549 581.297 513.091 579.76 511.603C578.255 510.085 576.813 508.499 575.43 506.856C572.668 503.569 570.239 499.991 568.145 496.221C567.111 494.329 566.173 492.385 565.303 490.415C564.457 488.435 563.714 486.416 563.014 484.392C562.331 482.363 561.709 480.32 561.071 478.315C560.75 477.314 560.423 476.322 560.049 475.385C559.696 474.472 559.205 473.508 558.744 473.151C558.538 473.006 558.418 472.992 558.22 473.066C558.019 473.14 557.719 473.428 557.469 473.8C556.956 474.549 556.537 475.508 556.146 476.459C555.372 478.385 554.688 480.4 553.967 482.397C552.537 486.402 550.987 490.388 549.171 494.25C545.528 501.967 540.968 509.225 535.679 515.87L535.481 515.72Z" fill="#D6D6D6"/>
    <path d="M501.025 526.035C506.436 518.67 513.861 507.314 520.139 492.268C527.558 474.49 529.107 461.801 533.242 461.798C537.699 461.796 538.696 476.53 547.681 494.858C554.713 509.204 563.56 519.468 570.137 526.035" fill="#578757"/>
    <path d="M500.925 525.962C508.084 515.931 514.114 505.116 518.819 493.767C521.21 488.107 523.219 482.301 525.073 476.433C526.012 473.499 526.891 470.549 527.94 467.604C528.481 466.134 529.028 464.66 529.897 463.213C530.357 462.507 530.849 461.737 531.814 461.199C532.758 460.611 534.179 460.745 535.031 461.391C535.879 462.011 536.364 462.763 536.795 463.484C537.221 464.213 537.552 464.947 537.863 465.681C538.478 467.15 538.994 468.621 539.497 470.087C540.494 473.022 541.446 475.941 542.476 478.827C543.485 481.719 544.58 484.573 545.747 487.392C546.898 490.218 548.145 493.002 549.521 495.722C554.838 506.716 562.025 516.746 570.228 525.947L570.052 526.123C560.802 517.904 553.125 507.868 547.295 496.852C545.859 494.084 544.552 491.252 543.349 488.379C542.166 485.498 541.12 482.567 540.136 479.625C539.168 476.679 538.285 473.709 537.373 470.781C536.915 469.32 536.446 467.868 535.904 466.478C535.377 465.126 534.704 463.676 533.879 463.023C533.491 462.757 533.138 462.711 532.737 462.918C532.322 463.108 531.881 463.653 531.512 464.225C530.762 465.409 530.184 466.827 529.639 468.235C528.56 471.079 527.616 474.02 526.615 476.939C524.636 482.789 522.49 488.608 519.967 494.261C514.918 505.565 508.566 516.262 501.127 526.11L500.925 525.962Z" fill="#D6D6D6"/>
    <path d="M561.632 585.682C566.323 579.022 570.26 571.853 573.317 564.344C574.877 560.602 576.184 556.765 577.391 552.883C578.003 550.942 578.573 548.99 579.264 547.026C579.621 546.044 579.978 545.06 580.575 544.059C580.895 543.571 581.231 543.023 581.962 542.609C582.679 542.157 583.798 542.262 584.439 542.754C585.076 543.217 585.413 543.747 585.714 544.241C586.01 544.743 586.237 545.237 586.449 545.729C586.87 546.714 587.218 547.689 587.559 548.66C588.234 550.601 588.874 552.522 589.567 554.42C590.239 556.324 590.972 558.197 591.744 560.05C592.496 561.91 593.312 563.742 594.213 565.532C595.942 569.15 597.991 572.615 600.213 575.982C601.324 577.666 602.509 579.307 603.752 580.907C604.961 582.538 606.269 584.093 607.573 585.667L607.397 585.844C605.817 584.536 604.344 583.108 602.889 581.651C601.468 580.165 600.111 578.614 598.809 577.012C596.212 573.803 593.939 570.321 591.987 566.665C591.026 564.828 590.152 562.946 589.346 561.04C588.561 559.125 587.876 557.174 587.228 555.22C586.598 553.261 586.025 551.29 585.435 549.357C585.139 548.392 584.836 547.434 584.49 546.529C584.165 545.652 583.698 544.709 583.287 544.386C583.109 544.275 583.054 544.257 582.88 544.33C582.699 544.396 582.416 544.717 582.187 545.071C581.711 545.808 581.324 546.736 580.962 547.656C580.243 549.519 579.607 551.463 578.934 553.39C577.603 557.254 576.158 561.102 574.465 564.838C571.065 572.303 566.804 579.353 561.834 585.829L561.632 585.682Z" fill="#D6D6D6"/>
    <path d="M604.591 573.553C609.281 566.668 613.196 559.278 616.232 551.562C617.78 547.715 619.078 543.778 620.274 539.796C620.881 537.804 621.447 535.803 622.127 533.79C622.478 532.782 622.833 531.774 623.41 530.748C623.716 530.243 624.048 529.692 624.746 529.236C625.094 529.01 625.574 528.871 626.036 528.888C626.513 528.893 626.954 529.092 627.298 529.318C627.949 529.8 628.281 530.344 628.583 530.852C628.879 531.367 629.103 531.874 629.315 532.379C629.732 533.389 630.079 534.389 630.416 535.385L632.408 541.297C633.075 543.252 633.801 545.178 634.566 547.085C635.31 549 636.122 550.884 637.015 552.73C638.731 556.458 640.771 560.035 642.985 563.515C644.094 565.257 645.278 566.953 646.523 568.611C647.733 570.299 649.045 571.909 650.353 573.539L650.173 573.713C648.585 572.345 647.104 570.857 645.646 569.34C644.221 567.794 642.863 566.184 641.564 564.521C638.972 561.192 636.706 557.597 634.772 553.828C633.819 551.936 632.95 550.002 632.155 548.043C631.377 546.076 630.701 544.075 630.059 542.073L628.285 536.061C627.991 535.071 627.69 534.088 627.346 533.158C627.022 532.257 626.553 531.278 626.138 530.946C625.961 530.842 625.936 530.829 625.752 530.907C625.559 531.009 625.275 531.343 625.047 531.721C624.574 532.498 624.19 533.453 623.832 534.402C623.119 536.318 622.488 538.311 621.821 540.289C620.5 544.253 619.067 548.203 617.385 552.043C614.005 559.718 609.767 566.992 604.796 573.698L604.591 573.553Z" fill="#D6D6D6"/>
    <path d="M383.151 295.904C387.842 289.019 391.757 281.629 394.792 273.913C396.341 270.066 397.638 266.128 398.835 262.146C399.441 260.155 400.007 258.153 400.688 256.14C401.039 255.133 401.393 254.124 401.97 253.098C402.276 252.594 402.608 252.041 403.306 251.587C403.655 251.361 404.134 251.222 404.596 251.238C405.073 251.243 405.514 251.443 405.859 251.669C406.509 252.151 406.841 252.695 407.144 253.203C407.44 253.717 407.663 254.224 407.875 254.73C408.293 255.74 408.64 256.74 408.977 257.736L410.969 263.648C411.635 265.603 412.361 267.529 413.126 269.435C413.871 271.35 414.682 273.235 415.575 275.08C417.291 278.809 419.332 282.385 421.546 285.866C422.654 287.607 423.838 289.304 425.082 290.961C426.292 292.649 427.604 294.26 428.912 295.89L428.732 296.063C427.144 294.695 425.663 293.207 424.205 291.691C422.781 290.145 421.422 288.535 420.123 286.872C417.531 283.543 415.266 279.947 413.331 276.179C412.378 274.286 411.509 272.353 410.714 270.394C409.936 268.427 409.26 266.426 408.618 264.423L406.844 258.411C406.551 257.421 406.25 256.439 405.905 255.509C405.582 254.608 405.112 253.629 404.697 253.297C404.52 253.193 404.495 253.179 404.312 253.258C404.118 253.359 403.835 253.694 403.606 254.072C403.133 254.848 402.749 255.803 402.391 256.752C401.678 258.668 401.047 260.662 400.38 262.639C399.059 266.604 397.626 270.554 395.944 274.394C392.565 282.068 388.326 289.342 383.355 296.048L383.151 295.904Z" fill="#D6D6D6"/>
    <path d="M346.559 278.765C350.127 273.748 355.022 266.012 359.163 255.764C364.054 243.653 365.076 235.01 367.803 235.007C370.743 235.005 371.399 245.043 377.324 257.527C381.96 267.301 387.794 274.291 392.131 278.765" fill="#578757"/>
    <path d="M346.458 278.693C351.148 271.808 355.063 264.418 358.099 256.702C359.647 252.855 360.945 248.918 362.141 244.935C362.748 242.944 363.314 240.942 363.994 238.93C364.345 237.922 364.7 236.914 365.277 235.888C365.583 235.383 365.915 234.831 366.613 234.376C366.961 234.15 367.441 234.011 367.903 234.028C368.38 234.032 368.821 234.232 369.165 234.458C369.816 234.94 370.148 235.484 370.45 235.992C370.746 236.507 370.97 237.014 371.182 237.519C371.599 238.529 371.946 239.529 372.284 240.525L374.275 246.437C374.942 248.392 375.668 250.318 376.433 252.224C377.177 254.139 377.989 256.024 378.882 257.869C380.598 261.598 382.638 265.175 384.852 268.655C385.961 270.396 387.145 272.093 388.389 273.751C389.599 275.438 390.911 277.049 392.219 278.679L392.039 278.853C390.45 277.485 388.969 275.996 387.512 274.48C386.087 272.934 384.729 271.324 383.43 269.661C380.838 266.332 378.572 262.737 376.638 258.968C375.685 257.075 374.816 255.142 374.021 253.183C373.243 251.216 372.567 249.215 371.925 247.212L370.151 241.2C369.857 240.211 369.556 239.228 369.212 238.298C368.888 237.397 368.419 236.418 368.004 236.086C367.827 235.982 367.802 235.969 367.618 236.047C367.425 236.148 367.141 236.483 366.913 236.861C366.439 237.638 366.056 238.593 365.698 239.541C364.985 241.458 364.354 243.451 363.687 245.429C362.366 249.393 360.932 253.343 359.25 257.183C355.871 264.858 351.633 272.132 346.662 278.838L346.458 278.693Z" fill="#D6D6D6"/>
    <path d="M535.581 563.676C539.149 558.659 544.044 550.923 548.185 540.674C553.076 528.564 554.098 519.921 556.825 519.918C559.765 519.916 560.421 529.954 566.346 542.438C570.982 552.21 576.816 559.202 581.152 563.676" fill="#578757"/>
    <path d="M535.479 563.604C540.169 556.719 544.084 549.329 547.12 541.613C548.668 537.766 549.966 533.828 551.162 529.846C551.769 527.855 552.335 525.853 553.015 523.841C553.366 522.833 553.721 521.825 554.298 520.798C554.604 520.294 554.936 519.742 555.634 519.287C555.982 519.061 556.462 518.922 556.924 518.938C557.401 518.943 557.842 519.143 558.186 519.369C558.837 519.851 559.169 520.395 559.471 520.903C559.767 521.418 559.991 521.924 560.203 522.43C560.62 523.44 560.967 524.44 561.304 525.436L563.296 531.348C563.963 533.303 564.688 535.229 565.454 537.135C566.198 539.05 567.01 540.935 567.903 542.78C569.619 546.509 571.659 550.086 573.873 553.566C574.982 555.307 576.166 557.004 577.411 558.662C578.621 560.349 579.933 561.96 581.241 563.59L581.061 563.764C579.472 562.395 577.991 560.907 576.534 559.391C575.109 557.845 573.751 556.235 572.452 554.572C569.86 551.243 567.594 547.648 565.66 543.879C564.707 541.986 563.838 540.053 563.043 538.094C562.265 536.127 561.589 534.126 560.947 532.123L559.173 526.111C558.879 525.121 558.578 524.139 558.234 523.209C557.91 522.308 557.441 521.329 557.026 520.997C556.849 520.893 556.824 520.88 556.64 520.958C556.447 521.059 556.163 521.394 555.935 521.772C555.461 522.549 555.078 523.504 554.72 524.452C554.007 526.368 553.376 528.362 552.709 530.339C551.388 534.304 549.954 538.254 548.272 542.094C544.893 549.768 540.655 557.043 535.684 563.749L535.479 563.604Z" fill="#D6D6D6"/>
    <path d="M593.104 617.384C596.671 612.367 601.567 604.631 605.707 594.383C610.599 582.273 611.62 573.629 614.348 573.627C617.287 573.624 617.944 583.662 623.868 596.147C628.505 605.92 634.339 612.91 638.676 617.384" fill="#578757"/>
    <path d="M593.003 617.312C597.693 610.428 601.608 603.037 604.643 595.321C606.192 591.474 607.489 587.537 608.686 583.555C609.293 581.564 609.858 579.561 610.539 577.549C610.89 576.541 611.244 575.533 611.821 574.507C612.127 574.002 612.459 573.451 613.157 572.995C613.506 572.769 613.985 572.63 614.447 572.647C614.924 572.652 615.365 572.851 615.71 573.077C616.36 573.559 616.693 574.103 616.995 574.612C617.291 575.126 617.514 575.633 617.727 576.138C618.144 577.148 618.491 578.148 618.828 579.144L620.82 585.056C621.487 587.011 622.212 588.937 622.978 590.844C623.722 592.759 624.534 594.644 625.426 596.489C627.142 600.217 629.183 603.794 631.397 607.274C632.506 609.016 633.689 610.712 634.934 612.37C636.144 614.058 637.457 615.668 638.764 617.298L638.585 617.472C636.996 616.104 635.515 614.616 634.058 613.099C632.633 611.554 631.274 609.943 629.976 608.28C627.383 604.951 625.118 601.356 623.184 597.587C622.231 595.695 621.362 593.761 620.566 591.802C619.788 589.835 619.113 587.834 618.471 585.832L616.696 579.82C616.403 578.83 616.102 577.847 615.757 576.917C615.434 576.016 614.964 575.037 614.55 574.705C614.372 574.602 614.348 574.588 614.164 574.666C613.97 574.768 613.687 575.102 613.458 575.48C612.985 576.257 612.602 577.212 612.243 578.161C611.53 580.077 610.9 582.07 610.233 584.048C608.912 588.012 607.478 591.962 605.796 595.802C602.417 603.477 598.179 610.751 593.207 617.457L593.003 617.312Z" fill="#D6D6D6"/>
    <path d="M638.674 609.473C642.242 604.455 647.137 596.72 651.278 586.471C656.169 574.361 657.191 565.717 659.918 565.715C662.858 565.712 663.515 575.75 669.439 588.235C674.075 598.008 679.909 604.999 684.245 609.473" fill="#578757"/>
    <path d="M638.573 609.4C643.264 602.516 647.178 595.125 650.214 587.409C651.763 583.562 653.06 579.625 654.256 575.643C654.863 573.652 655.429 571.65 656.11 569.637C656.46 568.629 656.815 567.621 657.392 566.595C657.698 566.09 658.03 565.537 658.728 565.083C659.077 564.857 659.556 564.718 660.018 564.735C660.495 564.74 660.936 564.939 661.281 565.165C661.931 565.647 662.263 566.191 662.566 566.7C662.861 567.214 663.085 567.721 663.297 568.226C663.714 569.236 664.062 570.236 664.399 571.232L666.39 577.144C667.057 579.099 667.783 581.025 668.548 582.932C669.293 584.847 670.104 586.732 670.997 588.577C672.713 592.305 674.753 595.882 676.967 599.362C678.076 601.104 679.26 602.8 680.504 604.458C681.714 606.146 683.026 607.756 684.334 609.386L684.154 609.56C682.565 608.192 681.084 606.704 679.627 605.187C678.202 603.641 676.844 602.031 675.545 600.368C672.953 597.039 670.687 593.444 668.753 589.675C667.8 587.783 666.931 585.849 666.136 583.89C665.358 581.923 664.682 579.922 664.04 577.92L662.266 571.908C661.972 570.918 661.671 569.935 661.327 569.005C661.003 568.104 660.534 567.125 660.119 566.793C659.942 566.69 659.917 566.676 659.733 566.755C659.54 566.856 659.256 567.19 659.028 567.568C658.555 568.345 658.171 569.3 657.813 570.249C657.1 572.165 656.469 574.158 655.802 576.136C654.481 580.1 653.048 584.05 651.366 587.89C647.986 595.565 643.748 602.839 638.777 609.545L638.573 609.4Z" fill="#D6D6D6"/>
    <path d="M604.693 631.351C609.138 626.334 615.237 618.598 620.394 608.349C626.488 596.239 627.759 587.595 631.156 587.593C634.817 587.59 635.635 597.628 643.015 610.113C648.792 619.886 656.058 626.877 661.46 631.351" fill="#578757"/>
    <path d="M604.6 631.268C610.323 624.551 615.283 617.195 619.185 609.326C621.166 605.407 622.848 601.353 624.402 597.231C625.193 595.172 625.931 593.094 626.845 591.018C627.325 589.984 627.787 588.934 628.641 587.928C628.848 587.677 629.143 587.444 629.4 587.211C629.745 587.031 630.063 586.784 630.478 586.718C631.278 586.469 632.202 586.69 632.839 587.132C634.088 588.032 634.596 589.141 635.148 590.158C635.671 591.196 636.103 592.229 636.532 593.258C637.379 595.315 638.187 597.352 639.068 599.354C639.923 601.363 640.855 603.331 641.841 605.266C642.809 607.209 643.852 609.114 644.994 610.961C647.223 614.688 649.78 618.226 652.552 621.609C653.934 623.304 655.391 624.943 656.905 626.536C658.387 628.163 659.964 629.699 661.539 631.256L661.379 631.448C659.555 630.182 657.826 628.787 656.117 627.359C654.437 625.898 652.818 624.364 651.254 622.769C648.122 619.579 645.336 616.041 642.875 612.283C641.665 610.389 640.556 608.431 639.526 606.437C638.516 604.432 637.623 602.372 636.785 600.304C635.96 598.229 635.214 596.132 634.452 594.077C634.069 593.053 633.683 592.032 633.244 591.081C632.818 590.147 632.283 589.196 631.723 588.789C631.458 588.602 631.212 588.533 630.937 588.615C630.796 588.605 630.666 588.746 630.513 588.786C630.369 588.932 630.209 589.026 630.062 589.197C629.452 589.857 628.952 590.831 628.487 591.784C627.564 593.725 626.761 595.791 625.912 597.832C624.233 601.929 622.408 605.996 620.293 609.906C616.043 617.716 610.77 624.926 604.786 631.436L604.6 631.268Z" fill="#D6D6D6"/>
    <path d="M354.242 217.697C349.543 220.725 347.927 228.756 351.092 237.331C352.143 238.393 353.191 239.455 354.242 240.518C354.574 239.278 354.905 238.038 355.237 236.799C356.216 236.945 357.196 237.09 358.175 237.236C357.586 235.426 356.995 233.616 356.406 231.806C357.36 233.496 358.992 234.542 360.657 234.462C361.617 234.416 362.356 234.006 362.782 233.71C362.441 232.698 362.099 231.684 361.758 230.672C361.699 230.386 361.443 229.3 360.443 228.619C359.36 227.882 357.843 227.919 356.617 228.725C358.702 227.71 361.126 226.183 361.08 224.369C361.061 223.635 360.649 223.258 360.259 222.366C359.736 221.166 359.357 219.269 360.221 216.327C357.103 216.145 355.201 217.079 354.242 217.697Z" fill="#74FF90"/>
    <path d="M346.814 263.245C349.724 268.184 355.399 269.099 360.538 264.583C361.051 263.285 361.563 261.986 362.076 260.688C361.185 260.455 360.293 260.22 359.401 259.987C359.314 258.869 359.227 257.753 359.141 256.636C358.042 257.501 356.941 258.368 355.843 259.233C356.793 257.972 357.185 256.022 356.818 254.159C356.607 253.086 356.193 252.302 355.915 251.856C355.302 252.353 354.689 252.85 354.076 253.347C354.143 254.488 353.576 255.259 352.95 255.053C352.351 254.856 351.832 253.809 351.889 252.753C351.454 253.256 350.806 253.985 349.988 254.812C349.667 255.138 349.111 255.644 348.803 255.958C348.099 256.681 346.903 257.32 344.772 256.677C345.237 260.205 346.221 262.236 346.814 263.245Z" fill="#74FF90"/>
    <path d="M515.017 422.657C513.742 424.728 512.466 426.799 511.191 428.869C509.278 432.694 507.365 436.518 505.452 440.342L515.017 451.179C518.843 449.904 522.669 448.629 526.494 447.354C529.524 448.416 532.552 449.479 535.581 450.541L545.624 441.617C540.31 440.13 534.996 438.642 529.682 437.155C528.301 434.18 526.919 431.206 525.538 428.231" fill="#74FF90"/>
    <path d="M692.286 497.713L684.245 505.999L688.266 511.737L698.662 515.796L704.401 506.755V493.917L694.324 484.964" fill="#74FF90"/>
    <path d="M600.463 472.039L593.104 484.964L596.784 489.427L604.693 493.917L607.484 484.964V479.228" fill="#74FF90"/>
    <path d="M386.21 308.392L383.153 313.491V321.778L386.21 326.239L396.579 321.717V311.579L389.866 302.169" fill="#B583FF"/>
    <path d="M384 327L324.59 573H54" stroke="white" stroke-width="3"/>
    <path d="M348.5 268L289 449H18" stroke="white" stroke-width="3"/>
    <path d="M522 423L594.372 236H924" stroke="white" stroke-width="3"/>
    <path d="M608 467L663.269 367H915" stroke="white" stroke-width="3"/>
    <path d="M701 513L739.526 588H915" stroke="white" stroke-width="3"/>
    <path d="M345 216L289.731 151H38" stroke="white" stroke-width="3"/>
    <path d="M40.0625 146V128.773H52.6602V129.805V130.836H42.3945V136.098H51.7695V137.129V138.16H42.3945V143.938H52.7891V144.969V146H40.0625ZM55.6133 146V128.773H56.668H57.7227V146H56.668H55.6133ZM67.9766 146V128.773H69.1367H75.0547C77.2422 128.773 78.9805 129.555 80.2695 131.117C81.5664 132.672 82.2148 134.766 82.2148 137.398C82.2148 140.023 81.5508 142.113 80.2227 143.668C78.9023 145.223 77.1172 146 74.8672 146H69.1367H67.9766ZM70.3086 144.008H74.5742C76.2461 144.008 77.5352 143.434 78.4414 142.285C79.3555 141.137 79.8125 139.508 79.8125 137.398C79.8125 135.281 79.375 133.648 78.5 132.5C77.625 131.344 76.3828 130.766 74.7734 130.766H70.3086V144.008ZM85.0039 146V133.461H86.0586H87.1133V146H86.0586H85.0039ZM84.9805 128.773H87.1367V131.164H84.9805V128.773ZM93.582 146.34C92.3555 146.34 91.3828 146.012 90.6641 145.355C89.9453 144.699 89.5859 143.812 89.5859 142.695C89.5859 141.57 89.9219 140.676 90.5938 140.012C91.2734 139.348 92.2617 138.934 93.5586 138.77L96.4297 138.406C96.6641 138.383 96.8867 138.344 97.0977 138.289C97.3711 138.219 97.582 138.078 97.7305 137.867C97.8789 137.656 97.9531 137.391 97.9531 137.07V136.965C97.9531 136.293 97.6992 135.77 97.1914 135.395C96.6836 135.012 95.9766 134.82 95.0703 134.82C94.2031 134.82 93.5234 135.023 93.0312 135.43C92.5469 135.828 92.2539 136.426 92.1523 137.223H90.207C90.3086 135.848 90.793 134.816 91.6602 134.129C92.5273 133.434 93.7695 133.086 95.3867 133.086C96.9102 133.086 98.0703 133.418 98.8672 134.082C99.6641 134.738 100.062 135.699 100.062 136.965V143.855C100.062 144.066 100.125 144.238 100.25 144.371C100.383 144.496 100.559 144.559 100.777 144.559C100.84 144.559 100.93 144.551 101.047 144.535C101.172 144.52 101.305 144.496 101.445 144.465V145.988C101.242 146.066 101.027 146.129 100.801 146.176C100.574 146.223 100.383 146.246 100.227 146.246C99.4297 146.246 98.8516 146.027 98.4922 145.59C98.2578 145.301 98.0898 144.891 97.9883 144.359C97.832 144.555 97.6523 144.742 97.4492 144.922C96.3945 145.867 95.1055 146.34 93.582 146.34ZM97.9531 141.031V139.672C97.5625 139.859 97.1289 139.988 96.6523 140.059L94.7188 140.34C93.7031 140.48 92.9609 140.719 92.4922 141.055C92.0234 141.383 91.7891 141.832 91.7891 142.402C91.7891 143.105 91.9805 143.648 92.3633 144.031C92.7461 144.406 93.2891 144.594 93.9922 144.594C95.1016 144.594 96.0391 144.293 96.8047 143.691C97.3281 143.27 97.6758 142.793 97.8477 142.262C97.8789 142.16 97.9023 142 97.918 141.781C97.9414 141.555 97.9531 141.305 97.9531 141.031ZM103.637 146V133.461H104.633H105.641V135.324L106.074 134.762C107.02 133.645 108.148 133.086 109.461 133.086C110.586 133.086 111.48 133.418 112.145 134.082C112.441 134.379 112.672 134.719 112.836 135.102L113.176 134.668C114.082 133.613 115.164 133.086 116.422 133.086C117.734 133.086 118.746 133.445 119.457 134.164C120.176 134.875 120.535 135.887 120.535 137.199V146H119.48H118.426V137.914C118.426 136.961 118.23 136.238 117.84 135.746C117.449 135.254 116.879 135.008 116.129 135.008C115.215 135.008 114.488 135.363 113.949 136.074C113.41 136.785 113.141 137.746 113.141 138.957V146H112.086H111.031V137.41C111.031 136.629 110.852 136.035 110.492 135.629C110.141 135.215 109.625 135.008 108.945 135.008C108.008 135.008 107.238 135.406 106.637 136.203C106.043 137 105.746 138.027 105.746 139.285V146H104.691H103.637ZM126.934 146.34C125.707 146.34 124.734 146.012 124.016 145.355C123.297 144.699 122.938 143.812 122.938 142.695C122.938 141.57 123.273 140.676 123.945 140.012C124.625 139.348 125.613 138.934 126.91 138.77L129.781 138.406C130.016 138.383 130.238 138.344 130.449 138.289C130.723 138.219 130.934 138.078 131.082 137.867C131.23 137.656 131.305 137.391 131.305 137.07V136.965C131.305 136.293 131.051 135.77 130.543 135.395C130.035 135.012 129.328 134.82 128.422 134.82C127.555 134.82 126.875 135.023 126.383 135.43C125.898 135.828 125.605 136.426 125.504 137.223H123.559C123.66 135.848 124.145 134.816 125.012 134.129C125.879 133.434 127.121 133.086 128.738 133.086C130.262 133.086 131.422 133.418 132.219 134.082C133.016 134.738 133.414 135.699 133.414 136.965V143.855C133.414 144.066 133.477 144.238 133.602 144.371C133.734 144.496 133.91 144.559 134.129 144.559C134.191 144.559 134.281 144.551 134.398 144.535C134.523 144.52 134.656 144.496 134.797 144.465V145.988C134.594 146.066 134.379 146.129 134.152 146.176C133.926 146.223 133.734 146.246 133.578 146.246C132.781 146.246 132.203 146.027 131.844 145.59C131.609 145.301 131.441 144.891 131.34 144.359C131.184 144.555 131.004 144.742 130.801 144.922C129.746 145.867 128.457 146.34 126.934 146.34ZM131.305 141.031V139.672C130.914 139.859 130.48 139.988 130.004 140.059L128.07 140.34C127.055 140.48 126.312 140.719 125.844 141.055C125.375 141.383 125.141 141.832 125.141 142.402C125.141 143.105 125.332 143.648 125.715 144.031C126.098 144.406 126.641 144.594 127.344 144.594C128.453 144.594 129.391 144.293 130.156 143.691C130.68 143.27 131.027 142.793 131.199 142.262C131.23 142.16 131.254 142 131.27 141.781C131.293 141.555 131.305 141.305 131.305 141.031ZM136.988 146V133.461H137.984H138.992V135.312L139.461 134.691C140.375 133.621 141.52 133.086 142.895 133.086C144.277 133.086 145.344 133.461 146.094 134.211C146.844 134.961 147.219 136.027 147.219 137.41V146H146.164H145.109V138.125C145.109 137.023 144.895 136.23 144.465 135.746C144.043 135.254 143.355 135.008 142.402 135.008C141.387 135.008 140.582 135.395 139.988 136.168C139.395 136.934 139.098 137.973 139.098 139.285V146H138.043H136.988ZM154.953 145.988C154.234 146.098 153.711 146.152 153.383 146.152C152.461 146.152 151.809 145.949 151.426 145.543C151.051 145.137 150.863 144.438 150.863 143.445V135.184H149.129V133.461H150.863V129.945H152.973V133.461H154.953V135.184H152.973V143.445C152.973 143.727 153.082 143.949 153.301 144.113C153.527 144.277 153.828 144.359 154.203 144.359H154.953V145.988ZM162.137 146.34C160.363 146.34 158.969 145.777 157.953 144.652C156.938 143.527 156.43 141.973 156.43 139.988C156.43 137.879 156.965 136.203 158.035 134.961C159.113 133.711 160.559 133.086 162.371 133.086C164.012 133.086 165.336 133.695 166.344 134.914C167.352 136.133 167.855 137.734 167.855 139.719L167.832 140.469H158.668C158.754 141.719 159.039 142.672 159.523 143.328C160.117 144.125 161.055 144.523 162.336 144.523C163.141 144.523 163.844 144.297 164.445 143.844C165.047 143.391 165.414 142.812 165.547 142.109H167.633C167.32 143.484 166.695 144.535 165.758 145.262C164.82 145.98 163.613 146.34 162.137 146.34ZM165.652 138.77C165.59 137.605 165.301 136.699 164.785 136.051C164.215 135.332 163.379 134.973 162.277 134.973C161.168 134.973 160.281 135.387 159.617 136.215C159.094 136.863 158.777 137.715 158.668 138.77H165.652Z" fill="white"/>
    <path d="M868.219 216.766C868.117 215.68 867.688 214.844 866.93 214.258C866.18 213.664 865.168 213.367 863.895 213.367C862.582 213.367 861.586 213.621 860.906 214.129C860.227 214.637 859.887 215.379 859.887 216.355C859.887 217.02 860.113 217.516 860.566 217.844C861.02 218.172 861.93 218.496 863.297 218.816L866.297 219.531C867.906 219.914 869.055 220.48 869.742 221.23C870.43 221.973 870.773 223.023 870.773 224.383C870.773 225.945 870.18 227.184 868.992 228.098C867.812 229.012 866.211 229.469 864.188 229.469C861.938 229.469 860.18 228.941 858.914 227.887C857.68 226.848 857.062 225.426 857.062 223.621V223.492H859.207C859.246 224.742 859.699 225.707 860.566 226.387C861.434 227.066 862.641 227.406 864.188 227.406C865.617 227.406 866.703 227.16 867.445 226.668C868.188 226.176 868.559 225.453 868.559 224.5C868.559 223.672 868.312 223.059 867.82 222.66C867.336 222.27 866.359 221.898 864.891 221.547L861.891 220.832C860.375 220.473 859.293 219.973 858.645 219.332C857.996 218.691 857.672 217.805 857.672 216.672C857.672 215.023 858.23 213.719 859.348 212.758C860.473 211.789 861.988 211.305 863.895 211.305C865.832 211.305 867.375 211.789 868.523 212.758C869.672 213.727 870.285 215.062 870.363 216.766H868.219ZM876.762 229.34C875.535 229.34 874.562 229.012 873.844 228.355C873.125 227.699 872.766 226.812 872.766 225.695C872.766 224.57 873.102 223.676 873.773 223.012C874.453 222.348 875.441 221.934 876.738 221.77L879.609 221.406C879.844 221.383 880.066 221.344 880.277 221.289C880.551 221.219 880.762 221.078 880.91 220.867C881.059 220.656 881.133 220.391 881.133 220.07V219.965C881.133 219.293 880.879 218.77 880.371 218.395C879.863 218.012 879.156 217.82 878.25 217.82C877.383 217.82 876.703 218.023 876.211 218.43C875.727 218.828 875.434 219.426 875.332 220.223H873.387C873.488 218.848 873.973 217.816 874.84 217.129C875.707 216.434 876.949 216.086 878.566 216.086C880.09 216.086 881.25 216.418 882.047 217.082C882.844 217.738 883.242 218.699 883.242 219.965V226.855C883.242 227.066 883.305 227.238 883.43 227.371C883.562 227.496 883.738 227.559 883.957 227.559C884.02 227.559 884.109 227.551 884.227 227.535C884.352 227.52 884.484 227.496 884.625 227.465V228.988C884.422 229.066 884.207 229.129 883.98 229.176C883.754 229.223 883.562 229.246 883.406 229.246C882.609 229.246 882.031 229.027 881.672 228.59C881.438 228.301 881.27 227.891 881.168 227.359C881.012 227.555 880.832 227.742 880.629 227.922C879.574 228.867 878.285 229.34 876.762 229.34ZM881.133 224.031V222.672C880.742 222.859 880.309 222.988 879.832 223.059L877.898 223.34C876.883 223.48 876.141 223.719 875.672 224.055C875.203 224.383 874.969 224.832 874.969 225.402C874.969 226.105 875.16 226.648 875.543 227.031C875.926 227.406 876.469 227.594 877.172 227.594C878.281 227.594 879.219 227.293 879.984 226.691C880.508 226.27 880.855 225.793 881.027 225.262C881.059 225.16 881.082 225 881.098 224.781C881.121 224.555 881.133 224.305 881.133 224.031ZM891.422 228.988C890.703 229.098 890.18 229.152 889.852 229.152C888.93 229.152 888.277 228.949 887.895 228.543C887.52 228.137 887.332 227.438 887.332 226.445V218.184H885.598V216.461H887.332V212.945H889.441V216.461H891.422V218.184H889.441V226.445C889.441 226.727 889.551 226.949 889.77 227.113C889.996 227.277 890.297 227.359 890.672 227.359H891.422V228.988ZM893.566 229V216.461H894.621H895.676V229H894.621H893.566ZM893.543 211.773H895.699V214.164H893.543V211.773ZM898.676 216.461H899.672H900.68V218.242L900.785 218.09C901.691 216.754 902.883 216.086 904.359 216.086C906 216.086 907.297 216.652 908.25 217.785C909.211 218.91 909.691 220.434 909.691 222.355C909.691 224.535 909.207 226.246 908.238 227.488C907.277 228.723 905.941 229.34 904.23 229.34C902.816 229.34 901.691 228.797 900.855 227.711L900.785 227.617V233.957H899.73H898.676V216.461ZM904.125 227.512C905.227 227.512 906.062 227.098 906.633 226.27C907.203 225.434 907.488 224.219 907.488 222.625C907.488 221.055 907.215 219.895 906.668 219.145C906.121 218.387 905.277 218.008 904.137 218.008C902.973 218.008 902.121 218.434 901.582 219.285C901.051 220.137 900.785 221.484 900.785 223.328C900.785 224.664 901.074 225.695 901.652 226.422C902.23 227.148 903.055 227.512 904.125 227.512ZM917.309 229.34C915.574 229.34 914.168 228.73 913.09 227.512C912.02 226.293 911.484 224.695 911.484 222.719C911.484 220.734 912.02 219.133 913.09 217.914C914.168 216.695 915.574 216.086 917.309 216.086C919.059 216.086 920.469 216.695 921.539 217.914C922.609 219.133 923.145 220.734 923.145 222.719C923.145 224.695 922.609 226.293 921.539 227.512C920.469 228.73 919.059 229.34 917.309 229.34ZM917.309 227.523C918.418 227.523 919.301 227.09 919.957 226.223C920.613 225.355 920.941 224.188 920.941 222.719C920.941 221.25 920.613 220.082 919.957 219.215C919.301 218.34 918.418 217.902 917.309 217.902C916.199 217.902 915.316 218.34 914.66 219.215C914.012 220.082 913.688 221.25 913.688 222.719C913.688 224.188 914.012 225.355 914.66 226.223C915.316 227.09 916.199 227.523 917.309 227.523Z" fill="white"/>
    <path d="M34.3477 436.66C34.0508 438.785 33.2344 440.453 31.8984 441.664C30.5703 442.867 28.8867 443.469 26.8477 443.469C24.4727 443.469 22.5781 442.652 21.1641 441.02C19.7578 439.379 19.0547 437.172 19.0547 434.398C19.0547 431.625 19.7852 429.418 21.2461 427.777C22.7148 426.129 24.6836 425.305 27.1523 425.305C29.0977 425.305 30.6953 425.805 31.9453 426.805C33.1953 427.805 33.9453 429.184 34.1953 430.941H31.9453C31.7266 429.801 31.1953 428.922 30.3516 428.305C29.5156 427.68 28.4375 427.367 27.1172 427.367C25.3906 427.367 24.0156 428.004 22.9922 429.277C21.9688 430.543 21.457 432.25 21.457 434.398C21.457 436.68 21.9297 438.418 22.875 439.613C23.8281 440.809 25.207 441.406 27.0117 441.406C28.3477 441.406 29.457 440.996 30.3398 440.176C31.2227 439.348 31.8086 438.176 32.0977 436.66H34.3477ZM39.082 430.461V438.547C39.082 439.602 39.2852 440.363 39.6914 440.832C40.0977 441.293 40.7578 441.523 41.6719 441.523C42.6875 441.523 43.4922 441.133 44.0859 440.352C44.6797 439.562 44.9766 438.496 44.9766 437.152V430.461H46.0312H47.0859V443H46.0898H45.082V441.09C44.9414 441.316 44.7852 441.531 44.6133 441.734C43.7148 442.805 42.5898 443.34 41.2383 443.34C39.8164 443.34 38.75 442.984 38.0391 442.273C37.3281 441.562 36.9727 440.496 36.9727 439.074V430.461H38.0273H39.082ZM54.8672 442.988C54.1484 443.098 53.625 443.152 53.2969 443.152C52.375 443.152 51.7227 442.949 51.3398 442.543C50.9648 442.137 50.7773 441.438 50.7773 440.445V432.184H49.043V430.461H50.7773V426.945H52.8867V430.461H54.8672V432.184H52.8867V440.445C52.8867 440.727 52.9961 440.949 53.2148 441.113C53.4414 441.277 53.7422 441.359 54.1172 441.359H54.8672V442.988ZM62.0508 443.34C60.2773 443.34 58.8828 442.777 57.8672 441.652C56.8516 440.527 56.3438 438.973 56.3438 436.988C56.3438 434.879 56.8789 433.203 57.9492 431.961C59.0273 430.711 60.4727 430.086 62.2852 430.086C63.9258 430.086 65.25 430.695 66.2578 431.914C67.2656 433.133 67.7695 434.734 67.7695 436.719L67.7461 437.469H58.582C58.668 438.719 58.9531 439.672 59.4375 440.328C60.0312 441.125 60.9688 441.523 62.25 441.523C63.0547 441.523 63.7578 441.297 64.3594 440.844C64.9609 440.391 65.3281 439.812 65.4609 439.109H67.5469C67.2344 440.484 66.6094 441.535 65.6719 442.262C64.7344 442.98 63.5273 443.34 62.0508 443.34ZM65.5664 435.77C65.5039 434.605 65.2148 433.699 64.6992 433.051C64.1289 432.332 63.293 431.973 62.1914 431.973C61.082 431.973 60.1953 432.387 59.5312 433.215C59.0078 433.863 58.6914 434.715 58.582 435.77H65.5664ZM70.5938 443V430.461H71.5898H72.5977V432.605C72.7773 432.27 72.9688 431.965 73.1719 431.691C73.9688 430.621 74.9492 430.086 76.1133 430.086C76.3086 430.086 76.5078 430.121 76.7109 430.191V432.348L76.2773 432.336C75.1367 432.336 74.2539 432.68 73.6289 433.367C73.0117 434.047 72.7031 435.02 72.7031 436.285V443H71.6484H70.5938ZM76.9219 430.461H78.1523H79.3828L82.7461 440.727L86.2148 430.461H87.375H88.5469L83.8711 443H82.7461H81.6094L76.9219 430.461ZM95.4023 443.34C93.668 443.34 92.2617 442.73 91.1836 441.512C90.1133 440.293 89.5781 438.695 89.5781 436.719C89.5781 434.734 90.1133 433.133 91.1836 431.914C92.2617 430.695 93.668 430.086 95.4023 430.086C97.1523 430.086 98.5625 430.695 99.6328 431.914C100.703 433.133 101.238 434.734 101.238 436.719C101.238 438.695 100.703 440.293 99.6328 441.512C98.5625 442.73 97.1523 443.34 95.4023 443.34ZM95.4023 441.523C96.5117 441.523 97.3945 441.09 98.0508 440.223C98.707 439.355 99.0352 438.188 99.0352 436.719C99.0352 435.25 98.707 434.082 98.0508 433.215C97.3945 432.34 96.5117 431.902 95.4023 431.902C94.293 431.902 93.4102 432.34 92.7539 433.215C92.1055 434.082 91.7812 435.25 91.7812 436.719C91.7812 438.188 92.1055 439.355 92.7539 440.223C93.4102 441.09 94.293 441.523 95.4023 441.523Z" fill="white"/>
    <path d="M53.8516 568V550.773H55.0117H56.1836V557.84H65.1719V550.773H66.332H67.5039V568H66.3438H65.1719V559.902H56.1836V568H55.0234H53.8516ZM73.082 555.461V563.547C73.082 564.602 73.2852 565.363 73.6914 565.832C74.0977 566.293 74.7578 566.523 75.6719 566.523C76.6875 566.523 77.4922 566.133 78.0859 565.352C78.6797 564.562 78.9766 563.496 78.9766 562.152V555.461H80.0312H81.0859V568H80.0898H79.082V566.09C78.9414 566.316 78.7852 566.531 78.6133 566.734C77.7148 567.805 76.5898 568.34 75.2383 568.34C73.8164 568.34 72.75 567.984 72.0391 567.273C71.3281 566.562 70.9727 565.496 70.9727 564.074V555.461H72.0273H73.082ZM87.5664 568.34C86.3398 568.34 85.3672 568.012 84.6484 567.355C83.9297 566.699 83.5703 565.812 83.5703 564.695C83.5703 563.57 83.9062 562.676 84.5781 562.012C85.2578 561.348 86.2461 560.934 87.543 560.77L90.4141 560.406C90.6484 560.383 90.8711 560.344 91.082 560.289C91.3555 560.219 91.5664 560.078 91.7148 559.867C91.8633 559.656 91.9375 559.391 91.9375 559.07V558.965C91.9375 558.293 91.6836 557.77 91.1758 557.395C90.668 557.012 89.9609 556.82 89.0547 556.82C88.1875 556.82 87.5078 557.023 87.0156 557.43C86.5312 557.828 86.2383 558.426 86.1367 559.223H84.1914C84.293 557.848 84.7773 556.816 85.6445 556.129C86.5117 555.434 87.7539 555.086 89.3711 555.086C90.8945 555.086 92.0547 555.418 92.8516 556.082C93.6484 556.738 94.0469 557.699 94.0469 558.965V565.855C94.0469 566.066 94.1094 566.238 94.2344 566.371C94.3672 566.496 94.543 566.559 94.7617 566.559C94.8242 566.559 94.9141 566.551 95.0312 566.535C95.1562 566.52 95.2891 566.496 95.4297 566.465V567.988C95.2266 568.066 95.0117 568.129 94.7852 568.176C94.5586 568.223 94.3672 568.246 94.2109 568.246C93.4141 568.246 92.8359 568.027 92.4766 567.59C92.2422 567.301 92.0742 566.891 91.9727 566.359C91.8164 566.555 91.6367 566.742 91.4336 566.922C90.3789 567.867 89.0898 568.34 87.5664 568.34ZM91.9375 563.031V561.672C91.5469 561.859 91.1133 561.988 90.6367 562.059L88.7031 562.34C87.6875 562.48 86.9453 562.719 86.4766 563.055C86.0078 563.383 85.7734 563.832 85.7734 564.402C85.7734 565.105 85.9648 565.648 86.3477 566.031C86.7305 566.406 87.2734 566.594 87.9766 566.594C89.0859 566.594 90.0234 566.293 90.7891 565.691C91.3125 565.27 91.6602 564.793 91.832 564.262C91.8633 564.16 91.8867 564 91.9023 563.781C91.9258 563.555 91.9375 563.305 91.9375 563.031ZM97.9141 568V555.461H98.9102H99.918V557.605C100.098 557.27 100.289 556.965 100.492 556.691C101.289 555.621 102.27 555.086 103.434 555.086C103.629 555.086 103.828 555.121 104.031 555.191V557.348L103.598 557.336C102.457 557.336 101.574 557.68 100.949 558.367C100.332 559.047 100.023 560.02 100.023 561.285V568H98.9688H97.9141ZM108.918 568.34C107.691 568.34 106.719 568.012 106 567.355C105.281 566.699 104.922 565.812 104.922 564.695C104.922 563.57 105.258 562.676 105.93 562.012C106.609 561.348 107.598 560.934 108.895 560.77L111.766 560.406C112 560.383 112.223 560.344 112.434 560.289C112.707 560.219 112.918 560.078 113.066 559.867C113.215 559.656 113.289 559.391 113.289 559.07V558.965C113.289 558.293 113.035 557.77 112.527 557.395C112.02 557.012 111.312 556.82 110.406 556.82C109.539 556.82 108.859 557.023 108.367 557.43C107.883 557.828 107.59 558.426 107.488 559.223H105.543C105.645 557.848 106.129 556.816 106.996 556.129C107.863 555.434 109.105 555.086 110.723 555.086C112.246 555.086 113.406 555.418 114.203 556.082C115 556.738 115.398 557.699 115.398 558.965V565.855C115.398 566.066 115.461 566.238 115.586 566.371C115.719 566.496 115.895 566.559 116.113 566.559C116.176 566.559 116.266 566.551 116.383 566.535C116.508 566.52 116.641 566.496 116.781 566.465V567.988C116.578 568.066 116.363 568.129 116.137 568.176C115.91 568.223 115.719 568.246 115.562 568.246C114.766 568.246 114.188 568.027 113.828 567.59C113.594 567.301 113.426 566.891 113.324 566.359C113.168 566.555 112.988 566.742 112.785 566.922C111.73 567.867 110.441 568.34 108.918 568.34ZM113.289 563.031V561.672C112.898 561.859 112.465 561.988 111.988 562.059L110.055 562.34C109.039 562.48 108.297 562.719 107.828 563.055C107.359 563.383 107.125 563.832 107.125 564.402C107.125 565.105 107.316 565.648 107.699 566.031C108.082 566.406 108.625 566.594 109.328 566.594C110.438 566.594 111.375 566.293 112.141 565.691C112.664 565.27 113.012 564.793 113.184 564.262C113.215 564.16 113.238 564 113.254 563.781C113.277 563.555 113.289 563.305 113.289 563.031ZM118.973 568V555.461H119.969H120.977V557.312L121.445 556.691C122.359 555.621 123.504 555.086 124.879 555.086C126.262 555.086 127.328 555.461 128.078 556.211C128.828 556.961 129.203 558.027 129.203 559.41V568H128.148H127.094V560.125C127.094 559.023 126.879 558.23 126.449 557.746C126.027 557.254 125.34 557.008 124.387 557.008C123.371 557.008 122.566 557.395 121.973 558.168C121.379 558.934 121.082 559.973 121.082 561.285V568H120.027H118.973ZM142.223 563.488C142.004 565.066 141.445 566.27 140.547 567.098C139.648 567.926 138.453 568.34 136.961 568.34C135.297 568.34 133.969 567.742 132.977 566.547C131.984 565.352 131.488 563.742 131.488 561.719C131.488 559.695 132 558.086 133.023 556.891C134.055 555.688 135.438 555.086 137.172 555.086C138.68 555.086 139.883 555.5 140.781 556.328C141.68 557.148 142.16 558.281 142.223 559.727H140.195C140.109 558.828 139.797 558.133 139.258 557.641C138.719 557.148 138 556.902 137.102 556.902C136.039 556.902 135.203 557.332 134.594 558.191C133.992 559.043 133.691 560.219 133.691 561.719C133.691 563.312 133.973 564.512 134.535 565.316C135.098 566.121 135.934 566.523 137.043 566.523C137.863 566.523 138.547 566.262 139.094 565.738C139.648 565.207 140.016 564.457 140.195 563.488H142.223ZM144.332 568V550.773H145.387H146.441V557.16L146.805 556.691C147.719 555.621 148.863 555.086 150.238 555.086C151.621 555.086 152.688 555.461 153.438 556.211C154.188 556.961 154.562 558.027 154.562 559.41V568H153.508H152.453V559.938C152.453 558.898 152.254 558.152 151.855 557.699C151.457 557.238 150.809 557.008 149.91 557.008C148.848 557.008 148.004 557.395 147.379 558.168C146.754 558.934 146.441 559.973 146.441 561.285V568H145.387H144.332ZM160.996 568.34C159.77 568.34 158.797 568.012 158.078 567.355C157.359 566.699 157 565.812 157 564.695C157 563.57 157.336 562.676 158.008 562.012C158.688 561.348 159.676 560.934 160.973 560.77L163.844 560.406C164.078 560.383 164.301 560.344 164.512 560.289C164.785 560.219 164.996 560.078 165.145 559.867C165.293 559.656 165.367 559.391 165.367 559.07V558.965C165.367 558.293 165.113 557.77 164.605 557.395C164.098 557.012 163.391 556.82 162.484 556.82C161.617 556.82 160.938 557.023 160.445 557.43C159.961 557.828 159.668 558.426 159.566 559.223H157.621C157.723 557.848 158.207 556.816 159.074 556.129C159.941 555.434 161.184 555.086 162.801 555.086C164.324 555.086 165.484 555.418 166.281 556.082C167.078 556.738 167.477 557.699 167.477 558.965V565.855C167.477 566.066 167.539 566.238 167.664 566.371C167.797 566.496 167.973 566.559 168.191 566.559C168.254 566.559 168.344 566.551 168.461 566.535C168.586 566.52 168.719 566.496 168.859 566.465V567.988C168.656 568.066 168.441 568.129 168.215 568.176C167.988 568.223 167.797 568.246 167.641 568.246C166.844 568.246 166.266 568.027 165.906 567.59C165.672 567.301 165.504 566.891 165.402 566.359C165.246 566.555 165.066 566.742 164.863 566.922C163.809 567.867 162.52 568.34 160.996 568.34ZM165.367 563.031V561.672C164.977 561.859 164.543 561.988 164.066 562.059L162.133 562.34C161.117 562.48 160.375 562.719 159.906 563.055C159.438 563.383 159.203 563.832 159.203 564.402C159.203 565.105 159.395 565.648 159.777 566.031C160.16 566.406 160.703 566.594 161.406 566.594C162.516 566.594 163.453 566.293 164.219 565.691C164.742 565.27 165.09 564.793 165.262 564.262C165.293 564.16 165.316 564 165.332 563.781C165.355 563.555 165.367 563.305 165.367 563.031ZM171.098 568V550.773H172.152H173.207V568H172.152H171.098Z" fill="white"/>
    <path d="M796.57 360.312L793.992 358.285C792.711 359.066 791.203 359.461 789.469 359.469C786.969 359.469 784.945 358.637 783.398 356.973C781.852 355.301 781.078 353.109 781.078 350.398C781.078 347.68 781.852 345.484 783.398 343.812C784.945 342.141 786.969 341.305 789.469 341.305C791.984 341.305 794.012 342.141 795.551 343.812C797.098 345.484 797.871 347.68 797.871 350.398C797.871 353.109 797.098 355.301 795.551 356.973L795.387 357.137L795.867 357.523C797.016 358.445 797.625 358.938 797.695 359L796.57 360.312ZM790.312 355.391L791.438 353.984L793.594 355.707L793.816 355.473C794.918 354.184 795.469 352.492 795.469 350.398C795.469 348.297 794.918 346.602 793.816 345.312C792.715 344.016 791.266 343.367 789.469 343.367C787.68 343.367 786.234 344.016 785.133 345.312C784.031 346.602 783.48 348.297 783.48 350.398C783.48 352.492 784.031 354.184 785.133 355.473C786.234 356.762 787.68 357.406 789.469 357.406C790.469 357.391 791.359 357.199 792.141 356.832L790.312 355.391ZM802.559 346.461V354.547C802.559 355.602 802.762 356.363 803.168 356.832C803.574 357.293 804.234 357.523 805.148 357.523C806.164 357.523 806.969 357.133 807.562 356.352C808.156 355.562 808.453 354.496 808.453 353.152V346.461H809.508H810.562V359H809.566H808.559V357.09C808.418 357.316 808.262 357.531 808.09 357.734C807.191 358.805 806.066 359.34 804.715 359.34C803.293 359.34 802.227 358.984 801.516 358.273C800.805 357.562 800.449 356.496 800.449 355.074V346.461H801.504H802.559ZM813.809 359V346.461H814.863H815.918V359H814.863H813.809ZM813.785 341.773H815.941V344.164H813.785V341.773ZM819.129 359V341.773H820.184H821.238V359H820.184H819.129ZM824.473 359V341.773H825.527H826.582V359H825.527H824.473ZM833.074 359.34C831.848 359.34 830.875 359.012 830.156 358.355C829.438 357.699 829.078 356.812 829.078 355.695C829.078 354.57 829.414 353.676 830.086 353.012C830.766 352.348 831.754 351.934 833.051 351.77L835.922 351.406C836.156 351.383 836.379 351.344 836.59 351.289C836.863 351.219 837.074 351.078 837.223 350.867C837.371 350.656 837.445 350.391 837.445 350.07V349.965C837.445 349.293 837.191 348.77 836.684 348.395C836.176 348.012 835.469 347.82 834.562 347.82C833.695 347.82 833.016 348.023 832.523 348.43C832.039 348.828 831.746 349.426 831.645 350.223H829.699C829.801 348.848 830.285 347.816 831.152 347.129C832.02 346.434 833.262 346.086 834.879 346.086C836.402 346.086 837.562 346.418 838.359 347.082C839.156 347.738 839.555 348.699 839.555 349.965V356.855C839.555 357.066 839.617 357.238 839.742 357.371C839.875 357.496 840.051 357.559 840.27 357.559C840.332 357.559 840.422 357.551 840.539 357.535C840.664 357.52 840.797 357.496 840.938 357.465V358.988C840.734 359.066 840.52 359.129 840.293 359.176C840.066 359.223 839.875 359.246 839.719 359.246C838.922 359.246 838.344 359.027 837.984 358.59C837.75 358.301 837.582 357.891 837.48 357.359C837.324 357.555 837.145 357.742 836.941 357.922C835.887 358.867 834.598 359.34 833.074 359.34ZM837.445 354.031V352.672C837.055 352.859 836.621 352.988 836.145 353.059L834.211 353.34C833.195 353.48 832.453 353.719 831.984 354.055C831.516 354.383 831.281 354.832 831.281 355.402C831.281 356.105 831.473 356.648 831.855 357.031C832.238 357.406 832.781 357.594 833.484 357.594C834.594 357.594 835.531 357.293 836.297 356.691C836.82 356.27 837.168 355.793 837.34 355.262C837.371 355.16 837.395 355 837.41 354.781C837.434 354.555 837.445 354.305 837.445 354.031ZM842.965 341.773H844.02H845.074V348.09C845.996 346.738 847.188 346.07 848.648 346.086C850.289 346.086 851.586 346.652 852.539 347.785C853.5 348.91 853.98 350.434 853.98 352.355C853.98 354.535 853.496 356.246 852.527 357.488C851.566 358.723 850.23 359.34 848.52 359.34C847.105 359.34 845.98 358.797 845.145 357.711L844.945 357.453V359H842.965V341.773ZM848.414 357.512C849.516 357.512 850.352 357.098 850.922 356.27C851.492 355.434 851.777 354.219 851.777 352.625C851.777 351.055 851.504 349.895 850.957 349.145C850.41 348.387 849.566 348.008 848.426 348.008C847.262 348.008 846.41 348.434 845.871 349.285C845.34 350.137 845.074 351.484 845.074 353.328C845.074 354.664 845.363 355.695 845.941 356.422C846.52 357.148 847.344 357.512 848.414 357.512ZM859.793 359.34C858.566 359.34 857.594 359.012 856.875 358.355C856.156 357.699 855.797 356.812 855.797 355.695C855.797 354.57 856.133 353.676 856.805 353.012C857.484 352.348 858.473 351.934 859.77 351.77L862.641 351.406C862.875 351.383 863.098 351.344 863.309 351.289C863.582 351.219 863.793 351.078 863.941 350.867C864.09 350.656 864.164 350.391 864.164 350.07V349.965C864.164 349.293 863.91 348.77 863.402 348.395C862.895 348.012 862.188 347.82 861.281 347.82C860.414 347.82 859.734 348.023 859.242 348.43C858.758 348.828 858.465 349.426 858.363 350.223H856.418C856.52 348.848 857.004 347.816 857.871 347.129C858.738 346.434 859.98 346.086 861.598 346.086C863.121 346.086 864.281 346.418 865.078 347.082C865.875 347.738 866.273 348.699 866.273 349.965V356.855C866.273 357.066 866.336 357.238 866.461 357.371C866.594 357.496 866.77 357.559 866.988 357.559C867.051 357.559 867.141 357.551 867.258 357.535C867.383 357.52 867.516 357.496 867.656 357.465V358.988C867.453 359.066 867.238 359.129 867.012 359.176C866.785 359.223 866.594 359.246 866.438 359.246C865.641 359.246 865.062 359.027 864.703 358.59C864.469 358.301 864.301 357.891 864.199 357.359C864.043 357.555 863.863 357.742 863.66 357.922C862.605 358.867 861.316 359.34 859.793 359.34ZM864.164 354.031V352.672C863.773 352.859 863.34 352.988 862.863 353.059L860.93 353.34C859.914 353.48 859.172 353.719 858.703 354.055C858.234 354.383 858 354.832 858 355.402C858 356.105 858.191 356.648 858.574 357.031C858.957 357.406 859.5 357.594 860.203 357.594C861.312 357.594 862.25 357.293 863.016 356.691C863.539 356.27 863.887 355.793 864.059 355.262C864.09 355.16 864.113 355 864.129 354.781C864.152 354.555 864.164 354.305 864.164 354.031ZM869.848 359V346.461H870.844H871.852V348.324L872.285 347.762C873.23 346.645 874.359 346.086 875.672 346.086C876.797 346.086 877.691 346.418 878.355 347.082C878.652 347.379 878.883 347.719 879.047 348.102L879.387 347.668C880.293 346.613 881.375 346.086 882.633 346.086C883.945 346.086 884.957 346.445 885.668 347.164C886.387 347.875 886.746 348.887 886.746 350.199V359H885.691H884.637V350.914C884.637 349.961 884.441 349.238 884.051 348.746C883.66 348.254 883.09 348.008 882.34 348.008C881.426 348.008 880.699 348.363 880.16 349.074C879.621 349.785 879.352 350.746 879.352 351.957V359H878.297H877.242V350.41C877.242 349.629 877.062 349.035 876.703 348.629C876.352 348.215 875.836 348.008 875.156 348.008C874.219 348.008 873.449 348.406 872.848 349.203C872.254 350 871.957 351.027 871.957 352.285V359H870.902H869.848ZM889.676 341.773H890.73H891.785V348.09C892.707 346.738 893.898 346.07 895.359 346.086C897 346.086 898.297 346.652 899.25 347.785C900.211 348.91 900.691 350.434 900.691 352.355C900.691 354.535 900.207 356.246 899.238 357.488C898.277 358.723 896.941 359.34 895.23 359.34C893.816 359.34 892.691 358.797 891.855 357.711L891.656 357.453V359H889.676V341.773ZM895.125 357.512C896.227 357.512 897.062 357.098 897.633 356.27C898.203 355.434 898.488 354.219 898.488 352.625C898.488 351.055 898.215 349.895 897.668 349.145C897.121 348.387 896.277 348.008 895.137 348.008C893.973 348.008 893.121 348.434 892.582 349.285C892.051 350.137 891.785 351.484 891.785 353.328C891.785 354.664 892.074 355.695 892.652 356.422C893.23 357.148 894.055 357.512 895.125 357.512ZM906.504 359.34C905.277 359.34 904.305 359.012 903.586 358.355C902.867 357.699 902.508 356.812 902.508 355.695C902.508 354.57 902.844 353.676 903.516 353.012C904.195 352.348 905.184 351.934 906.48 351.77L909.352 351.406C909.586 351.383 909.809 351.344 910.02 351.289C910.293 351.219 910.504 351.078 910.652 350.867C910.801 350.656 910.875 350.391 910.875 350.07V349.965C910.875 349.293 910.621 348.77 910.113 348.395C909.605 348.012 908.898 347.82 907.992 347.82C907.125 347.82 906.445 348.023 905.953 348.43C905.469 348.828 905.176 349.426 905.074 350.223H903.129C903.23 348.848 903.715 347.816 904.582 347.129C905.449 346.434 906.691 346.086 908.309 346.086C909.832 346.086 910.992 346.418 911.789 347.082C912.586 347.738 912.984 348.699 912.984 349.965V356.855C912.984 357.066 913.047 357.238 913.172 357.371C913.305 357.496 913.48 357.559 913.699 357.559C913.762 357.559 913.852 357.551 913.969 357.535C914.094 357.52 914.227 357.496 914.367 357.465V358.988C914.164 359.066 913.949 359.129 913.723 359.176C913.496 359.223 913.305 359.246 913.148 359.246C912.352 359.246 911.773 359.027 911.414 358.59C911.18 358.301 911.012 357.891 910.91 357.359C910.754 357.555 910.574 357.742 910.371 357.922C909.316 358.867 908.027 359.34 906.504 359.34ZM910.875 354.031V352.672C910.484 352.859 910.051 352.988 909.574 353.059L907.641 353.34C906.625 353.48 905.883 353.719 905.414 354.055C904.945 354.383 904.711 354.832 904.711 355.402C904.711 356.105 904.902 356.648 905.285 357.031C905.668 357.406 906.211 357.594 906.914 357.594C908.023 357.594 908.961 357.293 909.727 356.691C910.25 356.27 910.598 355.793 910.77 355.262C910.801 355.16 910.824 355 910.84 354.781C910.863 354.555 910.875 354.305 910.875 354.031Z" fill="white"/>
    <path d="M852.539 568.766C852.438 567.68 852.008 566.844 851.25 566.258C850.5 565.664 849.488 565.367 848.215 565.367C846.902 565.367 845.906 565.621 845.227 566.129C844.547 566.637 844.207 567.379 844.207 568.355C844.207 569.02 844.434 569.516 844.887 569.844C845.34 570.172 846.25 570.496 847.617 570.816L850.617 571.531C852.227 571.914 853.375 572.48 854.062 573.23C854.75 573.973 855.094 575.023 855.094 576.383C855.094 577.945 854.5 579.184 853.312 580.098C852.133 581.012 850.531 581.469 848.508 581.469C846.258 581.469 844.5 580.941 843.234 579.887C842 578.848 841.383 577.426 841.383 575.621V575.492H843.527C843.566 576.742 844.02 577.707 844.887 578.387C845.754 579.066 846.961 579.406 848.508 579.406C849.938 579.406 851.023 579.16 851.766 578.668C852.508 578.176 852.879 577.453 852.879 576.5C852.879 575.672 852.633 575.059 852.141 574.66C851.656 574.27 850.68 573.898 849.211 573.547L846.211 572.832C844.695 572.473 843.613 571.973 842.965 571.332C842.316 570.691 841.992 569.805 841.992 568.672C841.992 567.023 842.551 565.719 843.668 564.758C844.793 563.789 846.309 563.305 848.215 563.305C850.152 563.305 851.695 563.789 852.844 564.758C853.992 565.727 854.605 567.062 854.684 568.766H852.539ZM861.082 581.34C859.855 581.34 858.883 581.012 858.164 580.355C857.445 579.699 857.086 578.812 857.086 577.695C857.086 576.57 857.422 575.676 858.094 575.012C858.773 574.348 859.762 573.934 861.059 573.77L863.93 573.406C864.164 573.383 864.387 573.344 864.598 573.289C864.871 573.219 865.082 573.078 865.23 572.867C865.379 572.656 865.453 572.391 865.453 572.07V571.965C865.453 571.293 865.199 570.77 864.691 570.395C864.184 570.012 863.477 569.82 862.57 569.82C861.703 569.82 861.023 570.023 860.531 570.43C860.047 570.828 859.754 571.426 859.652 572.223H857.707C857.809 570.848 858.293 569.816 859.16 569.129C860.027 568.434 861.27 568.086 862.887 568.086C864.41 568.086 865.57 568.418 866.367 569.082C867.164 569.738 867.562 570.699 867.562 571.965V578.855C867.562 579.066 867.625 579.238 867.75 579.371C867.883 579.496 868.059 579.559 868.277 579.559C868.34 579.559 868.43 579.551 868.547 579.535C868.672 579.52 868.805 579.496 868.945 579.465V580.988C868.742 581.066 868.527 581.129 868.301 581.176C868.074 581.223 867.883 581.246 867.727 581.246C866.93 581.246 866.352 581.027 865.992 580.59C865.758 580.301 865.59 579.891 865.488 579.359C865.332 579.555 865.152 579.742 864.949 579.922C863.895 580.867 862.605 581.34 861.082 581.34ZM865.453 576.031V574.672C865.062 574.859 864.629 574.988 864.152 575.059L862.219 575.34C861.203 575.48 860.461 575.719 859.992 576.055C859.523 576.383 859.289 576.832 859.289 577.402C859.289 578.105 859.48 578.648 859.863 579.031C860.246 579.406 860.789 579.594 861.492 579.594C862.602 579.594 863.539 579.293 864.305 578.691C864.828 578.27 865.176 577.793 865.348 577.262C865.379 577.16 865.402 577 865.418 576.781C865.441 576.555 865.453 576.305 865.453 576.031ZM871.137 581V568.461H872.133H873.141V570.312L873.609 569.691C874.523 568.621 875.668 568.086 877.043 568.086C878.426 568.086 879.492 568.461 880.242 569.211C880.992 569.961 881.367 571.027 881.367 572.41V581H880.312H879.258V573.125C879.258 572.023 879.043 571.23 878.613 570.746C878.191 570.254 877.504 570.008 876.551 570.008C875.535 570.008 874.73 570.395 874.137 571.168C873.543 571.934 873.246 572.973 873.246 574.285V581H872.191H871.137ZM889.277 581.34C887.598 581.34 886.262 580.715 885.27 579.465C884.277 578.207 883.781 576.512 883.781 574.379C883.781 572.496 884.262 570.977 885.223 569.82C886.184 568.664 887.438 568.086 888.984 568.086C890.523 568.086 891.742 568.738 892.641 570.043L892.805 570.277V563.773H893.859H894.914V581H893.941H892.957V579.289L892.688 579.676C891.82 580.785 890.684 581.34 889.277 581.34ZM889.395 569.984C888.215 569.984 887.352 570.363 886.805 571.121C886.258 571.871 885.984 573.066 885.984 574.707C885.984 576.254 886.277 577.445 886.863 578.281C887.457 579.117 888.301 579.535 889.395 579.535C890.418 579.535 891.242 579.152 891.867 578.387C892.492 577.613 892.805 576.594 892.805 575.328C892.805 573.617 892.508 572.301 891.914 571.379C891.328 570.449 890.488 569.984 889.395 569.984ZM897.926 581V568.461H898.98H900.035V581H898.98H897.926ZM897.902 563.773H900.059V566.164H897.902V563.773ZM906.504 581.34C905.277 581.34 904.305 581.012 903.586 580.355C902.867 579.699 902.508 578.812 902.508 577.695C902.508 576.57 902.844 575.676 903.516 575.012C904.195 574.348 905.184 573.934 906.48 573.77L909.352 573.406C909.586 573.383 909.809 573.344 910.02 573.289C910.293 573.219 910.504 573.078 910.652 572.867C910.801 572.656 910.875 572.391 910.875 572.07V571.965C910.875 571.293 910.621 570.77 910.113 570.395C909.605 570.012 908.898 569.82 907.992 569.82C907.125 569.82 906.445 570.023 905.953 570.43C905.469 570.828 905.176 571.426 905.074 572.223H903.129C903.23 570.848 903.715 569.816 904.582 569.129C905.449 568.434 906.691 568.086 908.309 568.086C909.832 568.086 910.992 568.418 911.789 569.082C912.586 569.738 912.984 570.699 912.984 571.965V578.855C912.984 579.066 913.047 579.238 913.172 579.371C913.305 579.496 913.48 579.559 913.699 579.559C913.762 579.559 913.852 579.551 913.969 579.535C914.094 579.52 914.227 579.496 914.367 579.465V580.988C914.164 581.066 913.949 581.129 913.723 581.176C913.496 581.223 913.305 581.246 913.148 581.246C912.352 581.246 911.773 581.027 911.414 580.59C911.18 580.301 911.012 579.891 910.91 579.359C910.754 579.555 910.574 579.742 910.371 579.922C909.316 580.867 908.027 581.34 906.504 581.34ZM910.875 576.031V574.672C910.484 574.859 910.051 574.988 909.574 575.059L907.641 575.34C906.625 575.48 905.883 575.719 905.414 576.055C904.945 576.383 904.711 576.832 904.711 577.402C904.711 578.105 904.902 578.648 905.285 579.031C905.668 579.406 906.211 579.594 906.914 579.594C908.023 579.594 908.961 579.293 909.727 578.691C910.25 578.27 910.598 577.793 910.77 577.262C910.801 577.16 910.824 577 910.84 576.781C910.863 576.555 910.875 576.305 910.875 576.031Z" fill="white"/>
</svg>