<svg width="286" height="282" viewBox="0 0 286 282" fill="none" xmlns="http://www.w3.org/2000/svg">
<path d="M189.062 92.7461C185.143 81.239 180.455 67.4205 171.444 60.7057C171.922 57.4118 172.788 54.2157 174.08 51.1955C175.148 48.5968 176.516 46.2102 178.127 44.0219L180.353 41.0326L156.908 39.7563L158.195 42.8132C158.928 44.5691 159.391 46.4618 159.601 48.427C159.906 51.6457 159.43 54.4622 158.84 56.5669C146.637 56.9001 134.914 68.1454 125.228 77.3782C113.06 88.9891 96.077 107.785 88.5736 137.033C79.7409 171.545 82.968 183.399 92.741 208.361C98.8106 223.865 103.306 238.279 115.432 242.912C115.416 242.976 115.399 243.04 115.383 243.105L116.632 243.283C116.964 243.367 117.335 243.529 117.667 243.613C117.722 243.627 117.778 243.641 117.833 243.655C131.913 247.074 145.378 234.288 157.228 223.006C165.441 215.177 184.707 196.89 193.167 163.854C201.773 130.24 192.195 102.006 189.062 92.7461ZM173.558 44.6438C172.567 46.2376 171.726 47.9375 170.98 49.7295C169.808 52.5069 168.88 55.4825 168.355 58.4916L167.012 58.2206C166.104 57.8548 165.18 57.5532 164.184 57.3018C164.129 57.2879 164.074 57.2739 164.019 57.2599C163.41 57.1063 162.841 57.0309 162.272 56.9554C162.888 54.5157 163.318 51.4145 162.967 47.9111C162.816 46.6437 162.611 45.3624 162.333 44.1313L173.558 44.6438ZM95.9792 206.72C92.5564 196.978 83.4225 171.177 91.8757 137.935C99.0319 109.828 115.521 91.5911 127.299 80.3598C130.865 76.9575 134.589 73.3905 138.382 70.2506C126.078 91.252 116.755 113.962 110.542 137.868C103.194 166.267 100.582 195.248 102.791 224.012C100.227 218.789 98.1111 212.722 95.9792 206.72ZM116.183 239.004C112.513 237.463 109.516 234.657 106.989 231.15C103.709 200.34 106.016 169.302 113.899 138.784C120.712 112.503 131.393 87.6769 145.693 65.0623C150.284 62.2603 154.979 60.4409 159.646 60.5951L163.882 61.5281C162.286 70.4132 158.926 79.0579 155.631 87.4459C155.125 88.7522 154.618 90.0586 154.112 91.3649C136.081 138.307 125.78 187.952 116.183 239.004ZM119.453 240.034C129.034 189.047 139.263 139.452 157.229 92.7667C157.736 91.4603 158.226 90.2182 158.732 88.9118C162.043 80.4597 165.419 71.7507 167.119 62.687C173.484 66.1382 177.783 73.5753 181.169 81.6013L180.876 81.5957C180.506 107.523 176.679 133.397 169.462 158.483C161.379 186.765 149.199 213.33 133.378 237.541C128.752 239.787 124.053 240.923 119.453 240.034ZM155.14 220.089C150.35 224.616 145.312 229.422 140.114 233.232C154.242 210.369 165.144 185.599 172.708 159.371C179.264 136.44 183.077 112.953 184.066 89.2309C184.689 90.9589 185.256 92.673 185.823 94.387C188.855 103.348 198.13 130.686 189.888 163.094C181.752 194.846 163.106 212.539 155.14 220.089Z" fill="white"/>
<path d="M282 141C282 216.904 219.803 278.5 143 278.5C66.1974 278.5 4 216.904 4 141C4 65.0957 66.1974 3.5 143 3.5C219.803 3.5 282 65.0957 282 141Z" stroke="white" stroke-width="7"/>
</svg>
