<svg width="286" height="308" viewBox="0 0 286 308" fill="none" xmlns="http://www.w3.org/2000/svg">
<path d="M208.489 91.0197C202.883 75.7319 196.175 57.3734 183.602 48.3434C184.211 43.9932 185.357 39.7786 187.095 35.8037C188.53 32.3827 190.383 29.2474 192.576 26.3783L195.606 22.4593L163.158 20.3909L164.988 24.4561C166.03 26.7912 166.702 29.3028 167.024 31.9063C167.498 36.1696 166.885 39.8883 166.103 42.6634C149.23 42.9065 133.197 57.5945 119.951 69.653C103.309 84.8175 80.124 109.41 70.2199 147.985C58.5624 193.503 63.218 209.238 77.1396 242.423C85.7859 263.033 92.2371 282.177 109.084 288.503C109.062 288.587 109.041 288.672 109.02 288.757L110.75 289.014C111.21 289.13 111.726 289.35 112.186 289.466C112.263 289.486 112.34 289.505 112.417 289.525C131.946 294.276 150.363 277.578 166.57 262.844C177.802 252.619 204.154 228.737 215.32 185.165C226.678 140.832 212.973 103.322 208.489 91.0197ZM186.267 27.127C184.922 29.2196 183.786 31.455 182.783 33.8139C181.207 37.4695 179.971 41.3913 179.295 45.364L177.432 44.9837C176.171 44.485 174.888 44.071 173.507 43.7223C173.43 43.7029 173.353 43.6836 173.277 43.6642C172.433 43.4511 171.644 43.342 170.856 43.233C171.668 40.0152 172.213 35.919 171.671 31.2782C171.442 29.599 171.137 27.9004 170.733 26.2672L186.267 27.127ZM81.5919 240.304C76.6999 227.359 63.6485 193.076 74.8017 149.232C84.2442 112.161 106.755 88.3 122.864 73.6314C127.74 69.1878 132.834 64.5288 138.029 60.4361C121.352 88.0225 108.824 117.918 100.618 149.445C90.9154 186.9 87.7726 225.201 91.2931 263.292C87.6623 256.34 84.6378 248.28 81.5919 240.304ZM110.06 283.345C104.959 281.246 100.767 277.485 97.2153 272.805C92.1794 231.988 94.8682 190.961 105.277 150.712C114.274 116.051 128.645 83.3785 148.057 53.6902C154.361 50.0574 160.825 47.7263 167.284 48.006L173.157 49.3089C171.093 61.0384 166.586 72.4214 162.165 83.4656C161.486 85.1858 160.807 86.9059 160.128 88.6261C135.949 150.44 122.507 215.956 110.06 283.345ZM114.599 284.761C127.024 217.457 140.369 152.006 164.461 90.5312C165.141 88.811 165.799 87.1755 166.478 85.4554C170.92 74.3265 175.448 62.8588 177.653 50.8947C186.512 55.5639 192.579 65.4732 197.392 76.1469L196.987 76.1347C196.896 110.432 192.021 144.602 182.445 177.675C171.724 214.962 155.309 249.911 133.819 281.687C127.456 284.585 120.975 286.011 114.599 284.761ZM163.636 258.95C157.083 264.862 150.193 271.139 143.066 276.095C162.235 246.076 176.913 213.48 186.95 178.902C195.646 148.67 200.539 117.657 201.523 86.288C202.412 88.5844 203.225 90.8613 204.037 93.1383C208.376 105.043 221.647 141.363 210.772 184.107C200.034 225.985 174.531 249.091 163.636 258.95Z" fill="white"/>
</svg>
