<svg width="114" height="206" viewBox="0 0 114 206" fill="none" xmlns="http://www.w3.org/2000/svg">
<path d="M106.062 53.7461C102.143 42.239 97.4551 28.4205 88.4435 21.7057C88.9223 18.4118 89.7882 15.2157 91.0804 12.1955C92.1484 9.59676 93.5158 7.21023 95.1274 5.02194L97.353 2.03257L73.9077 0.75631L75.1949 3.81317C75.9281 5.56912 76.3914 7.46181 76.6011 9.42705C76.9061 12.6457 76.4302 15.4622 75.8399 17.5669C63.6367 17.9001 51.9136 29.1454 42.2283 38.3782C30.06 49.9891 13.077 68.7845 5.57364 98.0326C-3.25911 132.545 -0.0319534 144.399 9.74099 169.361C15.8106 184.865 20.306 199.279 32.4319 203.912C32.4157 203.976 32.3995 204.04 32.3832 204.105L33.6324 204.283C33.9642 204.367 34.3351 204.529 34.6669 204.613C34.7222 204.627 34.7775 204.641 34.8328 204.655C48.9125 208.074 62.3777 195.288 74.2276 184.006C82.4406 176.177 101.707 157.89 110.167 124.854C118.773 91.2403 109.195 63.0059 106.062 53.7461ZM90.558 5.64379C89.5673 7.23758 88.7262 8.93748 87.9795 10.7295C86.8075 13.5069 85.8797 16.4825 85.3551 19.4916L84.0116 19.2206C83.1039 18.8548 82.1799 18.5532 81.1844 18.3018C81.1291 18.2879 81.0738 18.2739 81.0185 18.2599C80.4102 18.1063 79.8409 18.0309 79.2717 17.9554C79.8877 15.5157 80.3179 12.4145 79.9671 8.9111C79.8165 7.64375 79.6106 6.36243 79.3331 5.13134L90.558 5.64379ZM12.9792 167.72C9.5564 157.978 0.422471 132.177 8.87567 98.9348C16.0319 70.8283 32.5209 52.5911 44.2993 41.3598C47.8646 37.9575 51.5892 34.3905 55.3825 31.2506C43.0784 52.252 33.755 74.9622 27.5419 98.8676C20.194 127.267 17.5823 156.248 19.7906 185.012C17.2268 179.789 15.1111 173.722 12.9792 167.72ZM33.1834 200.004C29.5133 198.463 26.5155 195.657 23.9888 192.15C20.7087 161.34 23.0164 130.302 30.8993 99.7837C37.7122 73.5028 48.3935 48.6769 62.6934 26.0623C67.2837 23.2603 71.979 21.4409 76.6465 21.5951L80.882 22.5281C79.2855 31.4132 75.9259 40.0579 72.6312 48.4459C72.1249 49.7522 71.6185 51.0586 71.1121 52.3649C53.0812 99.3067 42.7805 148.952 33.1834 200.004ZM36.453 201.034C46.0339 150.047 56.2631 100.452 74.2291 53.7667C74.7355 52.4603 75.2257 51.2182 75.732 49.9118C79.043 41.4597 82.4188 32.7507 84.1192 23.687C90.4839 27.1382 94.7831 34.5753 98.1688 42.6013L97.8761 42.5957C97.5062 68.523 93.6788 94.3967 86.4616 119.483C78.3786 147.765 66.1992 174.33 50.3784 198.541C45.7518 200.787 41.0528 201.923 36.453 201.034ZM72.1404 181.089C67.3497 185.616 62.3121 190.422 57.1143 194.232C71.2416 171.369 82.1441 146.599 89.7084 120.371C96.2637 97.4398 100.077 73.9528 101.066 50.2309C101.689 51.9589 102.256 53.673 102.823 55.387C105.855 64.3481 115.13 91.6865 106.888 124.094C98.7523 155.846 80.1064 173.539 72.1404 181.089Z" fill="white"/>
</svg>
