<svg width="286" height="282" viewBox="0 0 286 282" fill="none" xmlns="http://www.w3.org/2000/svg">
<path d="M227.458 154.973C220.514 157.799 213.892 158.525 206.787 156.265C203.476 155.216 199.6 155.781 197.178 158.687C192.494 164.177 186.034 166.114 180.866 170.07C173.276 175.882 166.493 182.745 157.853 187.185C153.008 189.687 153.654 197.034 153.251 202.846C152.282 214.633 150.586 226.339 145.337 236.672V150.372C147.76 153.278 150.909 155.458 154.623 156.507C156.319 156.992 158.015 157.234 159.71 157.234C163.344 157.234 166.897 156.184 170.208 154.085C172.549 152.632 174.649 150.614 176.264 148.353C177.879 146.093 179.171 143.51 179.978 140.684C181.593 135.033 181.109 129.14 178.686 124.134C176.183 118.968 171.984 115.335 166.736 113.882C165.363 113.478 163.909 113.236 162.537 113.236C162.779 111.783 162.94 110.33 162.94 108.876C162.94 97.5741 155.269 88.2094 145.337 86.9177V55.433C146.872 55.1908 148.567 54.6257 150.263 53.8991C153.977 52.3652 158.499 49.8626 163.102 46.9563C167.705 43.9693 171.823 40.8208 174.73 38.076C177.556 35.3311 180.22 32.2634 178.525 29.5993C176.829 26.9352 172.872 28.1461 169.239 29.5993C165.524 31.1332 161.002 33.6358 156.4 36.5421C151.797 39.5291 147.679 42.6776 144.772 45.4224C144.126 45.9875 143.561 46.6334 142.996 47.1985C142.592 46.6334 142.107 46.149 141.623 45.5839C138.958 42.6776 135.082 39.2062 130.722 35.8962C126.362 32.5863 122.001 29.8415 118.368 28.0654C114.815 26.2893 111.02 24.8362 109.082 27.3388C107.224 29.8415 109.647 33.1514 112.311 36.0577C114.976 39.0447 118.852 42.4354 123.293 45.7453C127.654 49.0553 132.014 51.8001 135.648 53.5762C137.343 54.3835 139.039 55.1908 140.573 55.433V86.7563C130.641 88.048 122.97 97.4127 122.97 108.715C122.97 110.168 123.132 111.702 123.374 113.074C121.92 113.155 120.548 113.397 119.175 113.72C114.007 115.173 109.728 118.806 107.224 123.973C104.802 128.978 104.317 134.872 105.932 140.523C108.759 150.452 117.318 157.072 126.281 157.072C127.977 157.072 129.592 156.83 131.287 156.346C135.002 155.296 138.151 153.117 140.573 150.21V236.753C135.325 226.339 133.548 214.714 132.66 202.846C132.175 197.034 132.902 189.687 128.057 187.185C119.417 182.745 112.634 175.882 105.044 170.07C99.7956 166.114 93.3357 164.177 88.7331 158.687C86.3107 155.781 82.354 155.216 79.1241 156.265C72.0183 158.525 65.397 157.718 58.4526 154.973C53.2848 152.874 48.8436 156.669 51.1045 162.32C54.9804 171.846 56.3532 181.614 57.3221 191.706C57.6451 195.338 60.6328 197.437 63.0553 199.698C71.4531 207.448 79.3663 216.651 85.9069 225.693C93.578 236.269 99.7955 238.852 110.858 236.43C129.107 232.474 137.747 237.722 142.188 252.334C142.43 253.222 143.642 253.222 143.884 252.334C148.325 237.722 156.884 232.394 175.214 236.43C186.357 238.852 192.494 236.349 200.165 225.693C206.706 216.651 214.619 207.529 223.017 199.698C225.52 197.437 228.427 195.338 228.75 191.706C229.719 181.614 231.092 171.846 234.968 162.32C237.067 156.669 232.626 152.955 227.458 154.973ZM126.039 41.8703C120.467 37.6723 116.833 34.1202 114.815 31.779C117.641 32.9899 122.082 35.5733 127.573 39.7713C133.144 43.9693 136.778 47.5214 138.716 49.8626C136.051 48.5709 131.61 46.0682 126.039 41.8703ZM77.1054 160.947C79.1241 160.14 82.677 159.656 83.646 160.947C90.5096 169.828 102.137 170.474 108.839 179.596C111.746 183.633 115.299 186.7 120.144 187.588C125.796 188.719 128.461 192.755 128.138 199.133C127.734 207.609 129.188 215.682 131.772 223.836C111.988 200.505 89.0561 181.857 63.7012 162.723C69.8381 162.401 73.4717 162.32 77.1054 160.947ZM55.6265 164.015C61.9248 165.872 65.7199 169.747 70.8878 173.783C60.7135 179.354 58.2104 172.815 55.6265 164.015ZM60.2291 188.961C58.5334 183.552 60.8751 181.13 65.074 180C74.36 177.578 82.354 179.919 89.0561 189.445C81.385 190.495 74.6022 191.302 68.3039 194.208C63.3783 196.549 61.6826 193.401 60.2291 188.961ZM71.0493 200.344C69.1113 196.872 74.037 196.711 75.9749 196.307C86.0684 194.289 96.7271 190.495 105.286 204.138C95.7582 204.703 87.5219 206.479 79.5278 209.466C72.8257 211.969 72.9872 203.734 71.0493 200.344ZM81.708 214.875C96.7271 205.107 112.554 206.721 118.771 218.912C110.212 220.203 101.976 221.737 93.8202 223.917C88.4101 225.289 86.7144 216.974 81.708 214.875ZM100.684 233.605C98.2613 234.17 94.8699 233.685 94.547 230.375C94.224 227.227 97.7768 227.388 99.7148 226.743C105.932 224.563 112.392 223.998 118.933 223.675C124.989 223.352 128.38 226.42 131.691 234.412C120.144 231.021 110.454 231.263 100.684 233.605ZM161.648 117.999C162.86 117.999 164.152 118.16 165.363 118.483C169.239 119.613 172.388 122.358 174.245 126.153C175.376 128.575 176.022 131.158 176.022 133.903C176.022 135.679 175.779 137.455 175.295 139.312C174.003 143.833 171.257 147.627 167.543 149.968C163.909 152.309 159.791 152.955 155.915 151.825C149.536 149.968 145.257 143.752 145.257 136.325C145.257 134.549 145.499 132.773 145.983 130.996C146.145 130.431 146.387 129.866 146.549 129.301C148.89 123.246 153.897 118.968 159.63 118.16C160.356 117.999 161.002 117.999 161.648 117.999ZM158.903 40.4979C164.717 36.7035 169.319 34.4431 172.226 33.4743C170.127 35.654 166.17 38.964 160.356 42.7583C154.543 46.5526 149.94 48.7323 147.033 49.7818C149.133 47.6021 153.089 44.2922 158.903 40.4979ZM129.753 151.825C121.678 154.085 113.038 148.515 110.374 139.312C109.082 134.791 109.405 130.189 111.343 126.153C113.2 122.278 116.349 119.533 120.225 118.483C121.436 118.16 122.647 117.999 123.939 117.999C124.585 117.999 125.312 118.08 125.958 118.16C131.691 118.968 136.697 123.246 139.039 129.382C139.281 129.947 139.443 130.512 139.604 131.077C140.089 132.853 140.331 134.629 140.331 136.405C140.412 143.752 136.132 149.968 129.753 151.825ZM144.853 122.358C144.772 122.52 144.691 122.601 144.53 122.762C144.368 123.004 144.207 123.246 144.045 123.489C143.884 123.811 143.642 124.054 143.48 124.377C143.399 124.457 143.399 124.619 143.319 124.699V124.78C143.319 124.78 143.319 124.78 143.319 124.861C143.157 125.103 142.996 125.426 142.915 125.749C142.753 125.426 142.592 125.103 142.43 124.78C142.35 124.7 142.269 124.538 142.269 124.457C142.269 124.457 142.269 124.377 142.188 124.377C142.027 124.134 141.946 123.892 141.784 123.65C141.704 123.569 141.704 123.489 141.704 123.489C141.542 123.246 141.381 123.004 141.219 122.762C141.138 122.601 141.058 122.439 140.896 122.358C140.735 122.116 140.573 121.874 140.412 121.712C140.331 121.551 140.25 121.47 140.17 121.309C139.927 121.067 139.766 120.824 139.523 120.502C139.443 120.421 139.443 120.421 139.443 120.34C139.201 120.098 139.039 119.856 138.797 119.613C138.716 119.533 138.635 119.452 138.555 119.371C138.312 119.129 138.07 118.887 137.747 118.645C137.505 118.403 137.182 118.16 136.94 117.918C136.617 117.595 136.213 117.353 135.89 117.111C135.728 117.03 135.648 116.869 135.486 116.788C135.486 116.788 135.486 116.788 135.405 116.707C135.163 116.546 135.002 116.384 134.759 116.304C134.517 116.142 134.275 115.981 134.033 115.9C133.79 115.738 133.629 115.658 133.387 115.577C132.983 115.335 132.579 115.093 132.095 114.931C131.852 114.85 131.691 114.77 131.449 114.689C131.206 114.608 131.045 114.527 130.803 114.447C130.56 114.366 130.399 114.285 130.157 114.205C129.995 114.124 129.915 114.124 129.753 114.043H129.672H129.592C129.269 113.962 128.946 113.882 128.703 113.801C128.542 113.801 128.461 113.72 128.3 113.72C127.896 112.186 127.654 110.572 127.654 108.876C127.654 99.3502 134.436 91.6001 142.834 91.6001C151.232 91.6001 158.015 99.3502 158.015 108.876C158.015 110.572 157.773 112.186 157.369 113.72C157.207 113.72 157.127 113.801 156.965 113.801C156.642 113.882 156.319 113.962 155.996 114.043H155.915H155.835C155.673 114.124 155.512 114.124 155.431 114.205C155.189 114.285 155.027 114.366 154.785 114.447C154.543 114.527 154.381 114.608 154.139 114.689C153.897 114.77 153.735 114.85 153.493 114.931C153.089 115.093 152.685 115.335 152.201 115.577C151.959 115.658 151.797 115.819 151.555 115.9C151.313 116.061 151.07 116.223 150.828 116.304C150.586 116.465 150.424 116.546 150.182 116.707C150.182 116.707 150.182 116.707 150.102 116.788C149.94 116.869 149.779 117.03 149.698 117.111C149.294 117.353 148.971 117.676 148.648 117.918C148.325 118.16 148.083 118.403 147.841 118.645C147.598 118.887 147.356 119.129 147.033 119.371C146.952 119.452 146.872 119.533 146.791 119.613C146.549 119.856 146.387 120.098 146.145 120.34C146.145 120.34 146.064 120.421 146.064 120.502C145.822 120.744 145.66 120.986 145.418 121.309C145.337 121.39 145.257 121.47 145.176 121.551C145.176 121.793 145.014 122.035 144.853 122.358ZM157.611 199.133C157.288 192.674 159.953 188.638 165.605 187.588C170.369 186.7 173.922 183.713 176.91 179.596C183.531 170.393 195.159 169.828 202.103 160.947C203.072 159.736 206.544 160.221 208.563 160.947C212.197 162.32 215.83 162.401 222.129 162.723C196.693 181.857 173.761 200.586 154.058 223.836C156.561 215.682 158.015 207.609 157.611 199.133ZM191.041 230.375C190.718 233.685 187.326 234.25 184.904 233.605C175.133 231.183 165.444 231.021 153.897 234.412C157.207 226.339 160.599 223.352 166.655 223.675C173.195 223.998 179.655 224.563 185.873 226.743C187.811 227.308 191.364 227.227 191.041 230.375ZM191.767 223.917C183.612 221.737 175.295 220.123 166.816 218.912C173.034 206.802 188.941 205.107 203.88 214.875C198.873 216.974 197.178 225.289 191.767 223.917ZM214.538 200.344C212.6 203.734 212.762 211.969 206.06 209.466C197.985 206.479 189.829 204.703 180.301 204.138C188.86 190.495 199.519 194.289 209.613 196.307C211.551 196.711 216.476 196.872 214.538 200.344ZM225.359 188.961C223.905 193.401 222.29 196.469 217.284 194.208C210.985 191.302 204.203 190.495 196.532 189.445C203.234 179.919 211.228 177.578 220.514 180C224.713 181.13 227.054 183.552 225.359 188.961ZM214.7 173.783C219.868 169.747 223.663 165.791 229.961 164.015C227.377 172.815 224.874 179.354 214.7 173.783Z" fill="white"/>
<path d="M282 141C282 216.904 219.803 278.5 143 278.5C66.1974 278.5 4 216.904 4 141C4 65.0957 66.1974 3.5 143 3.5C219.803 3.5 282 65.0957 282 141Z" stroke="white" stroke-width="7"/>
</svg>
