<svg width="194" height="238" viewBox="0 0 194 238" fill="none" xmlns="http://www.w3.org/2000/svg">
<path d="M185.11 135.334C177.866 138.283 170.958 139.041 163.545 136.682C160.091 135.587 156.048 136.177 153.52 139.209C148.634 144.938 141.895 146.959 136.504 151.087C128.585 157.152 121.509 164.313 112.496 168.946C107.441 171.557 108.115 179.223 107.694 185.289C106.683 197.588 104.914 209.802 99.4384 220.585V130.533C101.966 133.565 105.251 135.84 109.126 136.935C110.895 137.44 112.664 137.693 114.433 137.693C118.224 137.693 121.93 136.598 125.384 134.408C127.827 132.891 130.017 130.785 131.702 128.427C133.387 126.068 134.735 123.372 135.577 120.424C137.262 114.527 136.757 108.378 134.229 103.155C131.618 97.7635 127.238 93.9727 121.762 92.4564C120.33 92.0352 118.814 91.7825 117.381 91.7825C117.634 90.2662 117.803 88.7498 117.803 87.2335C117.803 75.44 109.8 65.6682 99.4384 64.3203V31.4668C101.039 31.2141 102.808 30.6244 104.577 29.8663C108.452 28.2657 113.17 25.6543 117.971 22.6217C122.773 19.5048 127.069 16.2195 130.102 13.3553C133.05 10.4912 135.83 7.29005 134.061 4.51014C132.292 1.73023 128.164 2.99383 124.373 4.51014C120.498 6.11069 115.781 8.72213 110.979 11.7548C106.178 14.8716 101.881 18.157 98.8487 21.0211C98.1748 21.6108 97.5852 22.2847 96.9955 22.8744C96.5743 22.2847 96.0689 21.7793 95.5634 21.1896C92.7835 18.157 88.74 14.5347 84.1911 11.0808C79.6421 7.62701 75.0932 4.76286 71.3024 2.90958C67.5958 1.05631 63.6366 -0.460005 61.6148 2.15143C59.6773 4.76286 62.2045 8.21669 64.9844 11.2493C67.7643 14.3662 71.8078 17.9043 76.441 21.3581C80.9899 24.8119 85.5389 27.6761 89.3297 29.5293C91.0987 30.3717 92.8678 31.2141 94.4683 31.4668V64.1518C84.1068 65.4997 76.104 75.2715 76.104 87.065C76.104 88.5814 76.2725 90.1819 76.5252 91.614C75.0089 91.6982 73.5769 91.951 72.1448 92.2879C66.7534 93.8042 62.2887 97.595 59.6773 102.986C57.1501 108.209 56.6447 114.359 58.3295 120.255C61.2778 130.617 70.2073 137.525 79.5579 137.525C81.3269 137.525 83.0117 137.272 84.7807 136.766C88.6558 135.671 91.9411 133.397 94.4683 130.364V220.669C88.9927 209.802 87.1394 197.672 86.2128 185.289C85.7073 179.223 86.4655 171.557 81.4112 168.946C72.3975 164.313 65.3214 157.152 57.4028 151.087C51.9273 146.959 45.1881 144.938 40.3864 139.209C37.8592 136.177 33.7315 135.587 30.3619 136.682C22.9488 139.041 16.0411 138.199 8.79653 135.334C3.40519 133.144 -1.22802 137.103 1.13069 143C5.17419 152.94 6.60628 163.133 7.61715 173.663C7.95411 177.454 11.071 179.644 13.5982 182.003C22.3591 190.09 30.6146 199.694 37.438 209.128C45.4408 220.164 51.9272 222.859 63.4681 220.332C82.5062 216.205 91.5199 221.68 96.1531 236.927C96.4058 237.854 97.6694 237.854 97.9221 236.927C102.555 221.68 111.485 216.12 130.607 220.332C142.232 222.859 148.634 220.248 156.637 209.128C163.461 199.694 171.716 190.174 180.477 182.003C183.088 179.644 186.121 177.454 186.458 173.663C187.469 163.133 188.901 152.94 192.944 143C195.135 137.103 190.502 133.228 185.11 135.334ZM79.3052 17.3146C73.4926 12.9341 69.7018 9.22756 67.5958 6.78461C70.5442 8.0482 75.1774 10.7439 80.9057 15.1243C86.7182 19.5048 90.509 23.2114 92.5308 25.6543C89.7508 24.3065 85.1177 21.695 79.3052 17.3146ZM28.2559 141.568C30.3619 140.726 34.0685 140.22 35.0793 141.568C42.2397 150.835 54.3702 151.508 61.3621 161.027C64.3947 165.239 68.1012 168.441 73.1556 169.367C79.0524 170.547 81.8323 174.759 81.4954 181.413C81.0742 190.259 82.5905 198.683 85.2862 207.191C64.6474 182.846 40.7234 163.386 14.2721 143.421C20.6743 143.084 24.4651 143 28.2559 141.568ZM5.84814 144.769C12.4188 146.707 16.3781 150.75 21.7694 154.962C11.1552 160.775 8.54381 153.951 5.84814 144.769ZM10.6498 170.799C8.88078 165.155 11.3237 162.628 15.7042 161.449C25.3918 158.922 33.7314 161.364 40.7233 171.305C32.7206 172.4 25.6445 173.242 19.0738 176.275C13.9352 178.718 12.1661 175.432 10.6498 170.799ZM21.9379 182.677C19.9162 179.055 25.0548 178.886 27.0766 178.465C37.6065 176.359 48.7261 172.4 57.6556 186.636C47.7153 187.226 39.1228 189.079 30.7831 192.196C23.7912 194.808 23.9597 186.215 21.9379 182.677ZM33.0576 197.84C48.7261 187.647 65.2371 189.332 71.7236 202.052C62.7942 203.4 54.2017 205.001 45.6935 207.275C40.0494 208.707 38.2804 200.03 33.0576 197.84ZM52.8539 217.384C50.3267 217.974 46.7886 217.468 46.4517 214.014C46.1147 210.729 49.8212 210.897 51.843 210.223C58.3295 207.949 65.0686 207.359 71.892 207.022C78.21 206.685 81.7481 209.887 85.202 218.226C73.1557 214.688 63.0469 214.941 52.8539 217.384ZM116.455 96.7526C117.718 96.7526 119.066 96.9211 120.33 97.258C124.373 98.4374 127.659 101.302 129.596 105.261C130.776 107.788 131.45 110.484 131.45 113.348C131.45 115.201 131.197 117.054 130.691 118.992C129.344 123.709 126.479 127.669 122.604 130.112C118.814 132.554 114.517 133.228 110.474 132.049C103.819 130.112 99.3542 123.625 99.3542 115.875C99.3542 114.022 99.6069 112.168 100.112 110.315C100.281 109.726 100.534 109.136 100.702 108.546C103.145 102.228 108.368 97.7635 114.349 96.9211C115.107 96.7526 115.781 96.7526 116.455 96.7526ZM113.591 15.8825C119.656 11.9232 124.458 9.56452 127.49 8.55364C125.3 10.8281 121.172 14.2819 115.107 18.2412C109.042 22.2005 104.24 24.4749 101.207 25.5701C103.398 23.2956 107.525 19.8418 113.591 15.8825ZM83.1802 132.049C74.7562 134.408 65.7426 128.595 62.9626 118.992C61.6148 114.274 61.9518 109.473 63.9735 105.261C65.911 101.217 69.1964 98.3532 73.2399 97.258C74.5035 96.9211 75.7671 96.7526 77.1149 96.7526C77.7888 96.7526 78.547 96.8369 79.2209 96.9211C85.2019 97.7635 90.4248 102.228 92.8677 108.63C93.1205 109.22 93.2889 109.81 93.4574 110.399C93.9629 112.253 94.2156 114.106 94.2156 115.959C94.2998 123.625 89.8351 130.112 83.1802 132.049ZM98.933 101.302C98.8488 101.47 98.7645 101.554 98.596 101.723C98.4275 101.975 98.2591 102.228 98.0906 102.481C97.9221 102.818 97.6694 103.071 97.5009 103.408C97.4167 103.492 97.4167 103.66 97.3324 103.745V103.829C97.3324 103.829 97.3324 103.829 97.3324 103.913C97.1639 104.166 96.9955 104.503 96.9112 104.84C96.7428 104.503 96.5743 104.166 96.4058 103.829C96.3216 103.745 96.2373 103.576 96.2373 103.492C96.2373 103.492 96.2373 103.408 96.1531 103.408C95.9846 103.155 95.9004 102.902 95.7319 102.649C95.6477 102.565 95.6476 102.481 95.6476 102.481C95.4792 102.228 95.3107 101.975 95.1422 101.723C95.058 101.554 94.9737 101.386 94.8052 101.302C94.6368 101.049 94.4683 100.796 94.2998 100.628C94.2156 100.459 94.1314 100.375 94.0471 100.206C93.7944 99.9537 93.6259 99.701 93.3732 99.364C93.2889 99.2798 93.2889 99.2798 93.2889 99.1956C93.0362 98.9428 92.8678 98.6901 92.615 98.4374C92.5308 98.3532 92.4466 98.2689 92.3623 98.1847C92.1096 97.932 91.8569 97.6793 91.5199 97.4265C91.2672 97.1738 90.9302 96.9211 90.6775 96.6684C90.3406 96.3314 89.9193 96.0787 89.5824 95.826C89.4139 95.7417 89.3297 95.5732 89.1612 95.489C89.1612 95.489 89.1612 95.489 89.077 95.4048C88.8242 95.2363 88.6558 95.0678 88.403 94.9836C88.1503 94.8151 87.8976 94.6466 87.6449 94.5624C87.3922 94.3939 87.2237 94.3097 86.971 94.2254C86.5498 93.9727 86.1286 93.72 85.6231 93.5515C85.3704 93.4673 85.2019 93.383 84.9492 93.2988C84.6965 93.2146 84.528 93.1303 84.2753 93.0461C84.0226 92.9618 83.8541 92.8776 83.6014 92.7934C83.4329 92.7091 83.3487 92.7091 83.1802 92.6249H83.0959H83.0117C82.6747 92.5406 82.3378 92.4564 82.0851 92.3721C81.9166 92.3721 81.8323 92.2879 81.6639 92.2879C81.2427 90.6874 80.99 89.0026 80.99 87.2335C80.99 77.2933 88.0661 69.2062 96.827 69.2062C105.588 69.2062 112.664 77.2933 112.664 87.2335C112.664 89.0026 112.411 90.6874 111.99 92.2879C111.822 92.2879 111.737 92.3721 111.569 92.3721C111.232 92.4564 110.895 92.5406 110.558 92.6249H110.474H110.39C110.221 92.7091 110.053 92.7091 109.968 92.7934C109.716 92.8776 109.547 92.9618 109.294 93.0461C109.042 93.1303 108.873 93.2146 108.621 93.2988C108.368 93.383 108.199 93.4673 107.947 93.5515C107.525 93.72 107.104 93.9727 106.599 94.2254C106.346 94.3097 106.178 94.4781 105.925 94.5624C105.672 94.7309 105.419 94.8993 105.167 94.9836C104.914 95.1521 104.746 95.2363 104.493 95.4048C104.493 95.4048 104.493 95.4048 104.409 95.489C104.24 95.5732 104.072 95.7417 103.987 95.826C103.566 96.0787 103.229 96.4157 102.892 96.6684C102.555 96.9211 102.303 97.1738 102.05 97.4265C101.797 97.6793 101.544 97.932 101.207 98.1847C101.123 98.2689 101.039 98.3532 100.955 98.4374C100.702 98.6901 100.534 98.9428 100.281 99.1956C100.281 99.1956 100.197 99.2798 100.197 99.364C99.9439 99.6168 99.7754 99.8695 99.5227 100.206C99.4385 100.291 99.3542 100.375 99.2699 100.459C99.2699 100.712 99.1015 100.965 98.933 101.302ZM112.243 181.413C111.906 174.674 114.686 170.462 120.583 169.367C125.553 168.441 129.259 165.324 132.376 161.027C139.284 151.424 151.414 150.835 158.659 141.568C159.67 140.305 163.292 140.81 165.398 141.568C169.189 143 172.98 143.084 179.55 143.421C153.015 163.386 129.091 182.93 108.536 207.191C111.148 198.683 112.664 190.259 112.243 181.413ZM147.118 214.014C146.781 217.468 143.243 218.058 140.716 217.384C130.523 214.857 120.414 214.688 108.368 218.226C111.822 209.802 115.36 206.685 121.678 207.022C128.501 207.359 135.24 207.949 141.727 210.223C143.749 210.813 147.455 210.729 147.118 214.014ZM147.876 207.275C139.368 205.001 130.691 203.316 121.846 202.052C128.333 189.416 144.928 187.647 160.512 197.84C155.289 200.03 153.52 208.707 147.876 207.275ZM171.632 182.677C169.61 186.215 169.779 194.808 162.787 192.196C154.363 189.079 145.854 187.226 135.914 186.636C144.844 172.4 155.963 176.359 166.493 178.465C168.515 178.886 173.654 179.055 171.632 182.677ZM182.92 170.799C181.404 175.432 179.719 178.634 174.496 176.275C167.925 173.242 160.849 172.4 152.846 171.305C159.838 161.364 168.178 158.922 177.866 161.449C182.246 162.628 184.689 165.155 182.92 170.799ZM171.8 154.962C177.192 150.75 181.151 146.623 187.722 144.769C185.026 153.951 182.415 160.775 171.8 154.962Z" fill="white"/>
</svg>
