<svg width="286" height="282" viewBox="0 0 286 282" fill="none" xmlns="http://www.w3.org/2000/svg">
<path d="M282 141C282 216.904 219.803 278.5 143 278.5C66.1974 278.5 4 216.904 4 141C4 65.0957 66.1974 3.5 143 3.5C219.803 3.5 282 65.0957 282 141Z" stroke="white" stroke-width="7"/>
<path d="M214.156 107.582H223.841C230.765 107.582 236.406 102.835 236.406 96.9967C236.406 92.0046 232.302 87.7913 226.728 86.7009C226.228 82.4802 222.042 79.1793 216.961 79.1793C215.745 79.1793 214.559 79.3647 213.439 79.7282C210.925 76.7314 207.179 74.5432 202.934 73.5937V73.4898L202.359 73.4157C199.069 64.3437 189.503 41 178.341 41C166.052 41 156.218 69.8848 155.143 73.1486L155.121 73.2228L102.287 100.869L96.9072 85.4547C96.1536 83.081 93.3183 75.3369 88.4683 75.3369C83.5662 75.3369 80.7309 83.3035 79.9623 85.8182L69.7402 115.089C69.4492 115.066 69.1582 115.059 68.8672 115.059C64.4128 115.059 60.2941 117.032 57.6975 120.303C56.9887 120.103 56.2425 119.999 55.4889 119.999C51.6612 119.999 48.4827 122.699 47.9753 126.186C43.9834 127.269 41.0959 130.733 41.0959 134.798C41.0959 139.738 45.3713 143.758 50.6315 143.758H59.7345L34.5 216H139.355L143.131 215.985H251.5L214.156 107.582ZM199.912 77.5993L200.404 77.6586C204.866 78.2372 208.754 80.4848 210.805 83.6744L211.947 85.4399L213.783 84.4162C214.708 83.9044 215.812 83.6299 216.961 83.6299C219.856 83.6299 222.296 85.4176 222.296 87.5317C222.296 87.7394 222.274 87.9396 222.229 88.1325L221.572 90.7658L224.303 90.8845C228.579 91.0625 231.929 93.7478 231.929 96.9967C231.929 100.379 228.302 103.131 223.841 103.131H181.519C177.065 103.131 173.439 100.379 173.439 96.9967C173.439 96.4404 173.536 95.8989 173.73 95.3871C173.782 95.2239 173.849 95.0607 173.931 94.8975C174.118 94.5044 174.357 94.1335 174.64 93.7848C174.767 93.6291 174.901 93.4733 175.05 93.3324C175.282 93.095 175.543 92.865 175.826 92.6499C177.281 91.5298 179.311 90.84 181.542 90.84H183.758V88.6443C183.758 87.68 183.915 86.7454 184.22 85.8553C184.332 85.5066 184.467 85.158 184.631 84.8168C184.706 84.6462 184.795 84.483 184.885 84.3124C184.974 84.1417 185.071 83.9711 185.183 83.8079C185.235 83.7115 185.302 83.6151 185.362 83.5187C185.429 83.4148 185.504 83.311 185.578 83.2145C185.638 83.1329 185.698 83.0439 185.765 82.9623C185.869 82.814 185.989 82.673 186.108 82.5321C186.265 82.3466 186.429 82.1612 186.601 81.9832C186.869 81.6939 187.16 81.412 187.474 81.1598C187.623 81.0263 187.78 80.9002 187.944 80.7741C188.265 80.5219 188.608 80.2845 188.959 80.0546C191.436 78.4597 194.599 77.5028 198.039 77.5028C198.658 77.5028 199.285 77.5325 199.912 77.5993ZM153.002 79.3647L124.097 163.289L103.772 105.119L153.002 79.3647ZM50.6315 139.308C47.841 139.308 45.5727 137.283 45.5727 134.798C45.5727 132.409 47.6694 130.429 50.348 130.295L52.9521 130.162L52.4298 127.625C52.3999 127.484 52.385 127.328 52.385 127.165C52.385 125.666 53.7803 124.45 55.4889 124.45C56.1455 124.45 56.7798 124.628 57.3095 124.962L59.3092 126.223L60.4657 124.175C61.9803 121.483 64.9052 119.74 68.1957 119.532C68.4195 119.517 68.6434 119.51 68.8672 119.51C69.4343 119.51 70.0014 119.554 70.5684 119.651C73.6873 120.162 76.2092 122.032 77.4553 124.524C77.4553 124.524 77.4553 124.524 77.4628 124.532C78.1492 125.711 78.5372 127.054 78.5372 128.463V130.288H80.5369C82.4171 130.288 84.0587 131.207 84.9242 132.58C84.9242 132.58 84.9316 132.587 84.9391 132.595C85.3494 133.247 85.5882 133.997 85.5882 134.798C85.5882 137.283 83.32 139.308 80.5369 139.308H50.6315ZM40.7974 211.549L64.3605 144.07H80.7756C86.0508 144.07 90.3412 140.072 90.3412 135.154C90.3412 133.262 89.7069 131.504 88.625 130.065C88.6175 130.058 88.6101 130.043 88.6026 130.035C87.2447 128.248 85.2151 126.935 82.8424 126.445C82.82 126.327 82.7977 126.208 82.7753 126.089C82.7231 126.074 82.6633 126.067 82.6111 126.052C82.529 125.54 82.4097 125.043 82.2604 124.554C82.2157 124.391 82.1634 124.227 82.1037 124.072C81.9247 123.538 81.7083 123.018 81.4546 122.514C81.4322 122.477 81.4173 122.44 81.3949 122.403C79.8355 119.665 77.2389 117.499 74.0305 116.372L74.1499 116.031L84.2004 87.235L84.2303 87.1534C85.4166 83.2887 87.5879 79.8172 88.4683 79.7875C89.3189 79.7875 91.4529 83.0884 92.6616 86.8492L121.739 170.114L121.746 170.129L107.473 211.549H40.7974ZM112.211 211.535L126.477 170.114L158.777 76.3383L158.822 76.2047L159.389 74.558C163.09 63.3052 171.506 45.4507 178.341 45.4507C184.728 45.4507 192.816 60.9464 197.45 73.0373C196.994 73.0522 196.539 73.0819 196.099 73.1338C196.166 73.1264 196.233 73.1264 196.301 73.1264C195.942 73.1486 195.584 73.1857 195.226 73.2302C195.032 73.2525 194.838 73.2747 194.652 73.3118C194.338 73.3563 194.032 73.4082 193.726 73.4676C193.45 73.5195 193.174 73.5863 192.906 73.6456C192.413 73.7643 191.928 73.8978 191.458 74.0462C191.272 74.0981 191.092 74.1574 190.913 74.2242C190.697 74.2984 190.481 74.3725 190.264 74.4616C190.182 74.4838 190.108 74.5209 190.025 74.558C189.824 74.6322 189.63 74.7138 189.429 74.8028C189.242 74.8844 189.048 74.966 188.862 75.055C188.645 75.1514 188.429 75.2627 188.212 75.3739C188.011 75.4778 187.809 75.5891 187.608 75.7003C187.339 75.8487 187.078 76.0045 186.817 76.1676C186.519 76.3457 186.22 76.5385 185.937 76.7537C185.81 76.8352 185.683 76.9243 185.564 77.0207C185.176 77.2951 184.81 77.5993 184.452 77.9034C184.243 78.0888 184.034 78.2817 183.833 78.482C183.81 78.5042 183.788 78.5191 183.765 78.5488C183.683 78.6229 183.601 78.7045 183.519 78.7935C183.407 78.9048 183.295 79.0161 183.183 79.1422C183.071 79.2534 182.967 79.3721 182.863 79.4908C182.557 79.8469 182.258 80.2103 181.99 80.5886C181.915 80.6999 181.833 80.8038 181.758 80.915C181.654 81.0634 181.549 81.2191 181.452 81.3823C181.326 81.5604 181.214 81.7458 181.109 81.9387C180.997 82.139 180.885 82.3392 180.781 82.5395C180.676 82.7472 180.572 82.9623 180.475 83.1774C180.356 83.4445 180.244 83.7115 180.139 83.986C180.065 84.1937 179.99 84.4014 179.923 84.6091C179.729 85.2322 179.572 85.8775 179.468 86.5303C179.46 86.5303 179.46 86.5303 179.453 86.5303C179.445 86.5377 179.445 86.5525 179.445 86.5599C179.072 86.6119 178.707 86.6786 178.348 86.7602C178.11 86.8121 177.886 86.8715 177.654 86.9308C177.401 86.9976 177.155 87.0718 176.908 87.1534C176.714 87.2201 176.528 87.2869 176.341 87.3611C176.147 87.4352 175.961 87.5094 175.782 87.5836C175.617 87.6578 175.461 87.7319 175.304 87.8061C175.147 87.8803 174.991 87.9619 174.834 88.0435C174.67 88.1325 174.513 88.2215 174.357 88.318C174.297 88.3476 174.245 88.3847 174.192 88.4144C174.148 88.4366 174.11 88.4589 174.066 88.496C174.051 88.5034 174.036 88.5034 174.021 88.5182C173.991 88.5405 173.954 88.5627 173.924 88.5776C173.916 88.585 173.916 88.5924 173.909 88.5924C173.849 88.6295 173.789 88.6666 173.737 88.7037C173.7 88.7259 173.663 88.7482 173.633 88.7778C173.61 88.7853 173.588 88.8001 173.573 88.8224C173.469 88.8891 173.372 88.9559 173.275 89.0301C173.215 89.0672 173.163 89.1042 173.111 89.1487C172.812 89.3787 172.528 89.6161 172.252 89.8683C172.103 90.0018 171.961 90.1427 171.82 90.2911C171.685 90.432 171.544 90.5804 171.417 90.7287C171.282 90.8771 171.156 91.0403 171.029 91.1961C170.962 91.2851 170.894 91.3667 170.835 91.4557C170.656 91.6856 170.499 91.923 170.357 92.1604C169.484 93.5994 168.992 95.2313 168.992 96.9596C168.992 102.79 174.625 107.537 181.542 107.537H209.41L209.425 107.582L245.232 211.535H112.211Z" fill="white"/>
</svg>
