<svg width="194" height="158" viewBox="0 0 194 158" fill="none" xmlns="http://www.w3.org/2000/svg">
<path d="M160.286 60.4744H168.9C175.058 60.4744 180.075 56.2273 180.075 51.0046C180.075 46.5384 176.425 42.7691 171.468 41.7936C171.023 38.0176 167.3 35.0645 162.781 35.0645C161.699 35.0645 160.644 35.2304 159.649 35.5556C157.412 32.8746 154.081 30.9169 150.305 30.0675V29.9745L149.794 29.9082C146.868 21.7921 138.36 0.908081 128.432 0.908081C117.502 0.908081 108.756 26.7494 107.8 29.6693L107.78 29.7356L60.7897 54.4687L56.005 40.6787C55.3348 38.5551 52.813 31.627 48.4995 31.627C44.1395 31.627 41.6178 38.7542 40.9342 41.0039L31.8427 67.1902C31.5838 67.1703 31.3251 67.1637 31.0662 67.1637C27.1044 67.1637 23.4413 68.9289 21.1319 71.8555C20.5014 71.6763 19.8378 71.5834 19.1676 71.5834C15.7632 71.5834 12.9362 73.999 12.4849 77.118C8.93458 78.0868 6.36638 81.1859 6.36638 84.8226C6.36638 89.2423 10.1689 92.8391 14.8474 92.8391H22.9436L0.5 157.469H93.7582L97.1161 157.456H193.5L160.286 60.4744ZM147.617 33.651L148.055 33.7041C152.024 34.2217 155.481 36.2325 157.306 39.086L158.322 40.6654L159.954 39.7496C160.777 39.2917 161.759 39.0462 162.781 39.0462C165.356 39.0462 167.526 40.6455 167.526 42.5368C167.526 42.7226 167.506 42.9018 167.466 43.0744L166.882 45.4302L169.311 45.5364C173.114 45.6957 176.093 48.0979 176.093 51.0046C176.093 54.0307 172.868 56.4927 168.9 56.4927H131.259C127.297 56.4927 124.072 54.0307 124.072 51.0046C124.072 50.5069 124.159 50.0224 124.331 49.5645C124.378 49.4185 124.437 49.2725 124.51 49.1266C124.676 48.7748 124.889 48.443 125.141 48.1311C125.254 47.9918 125.373 47.8524 125.506 47.7263C125.711 47.514 125.944 47.3082 126.196 47.1158C127.49 46.1137 129.295 45.4966 131.279 45.4966H133.25V43.5323C133.25 42.6696 133.389 41.8334 133.662 41.0371C133.761 40.7252 133.881 40.4133 134.027 40.108C134.093 39.9554 134.173 39.8094 134.252 39.6567C134.332 39.5041 134.418 39.3515 134.518 39.2055C134.564 39.1192 134.624 39.0329 134.677 38.9467C134.737 38.8538 134.803 38.7608 134.869 38.6746C134.922 38.6016 134.976 38.5219 135.035 38.4489C135.128 38.3162 135.234 38.1901 135.341 38.064C135.48 37.8981 135.626 37.7322 135.778 37.573C136.017 37.3142 136.276 37.062 136.555 36.8364C136.688 36.7169 136.827 36.6041 136.973 36.4913C137.258 36.2656 137.564 36.0533 137.876 35.8476C140.079 34.4208 142.892 33.5647 145.952 33.5647C146.503 33.5647 147.06 33.5913 147.617 33.651ZM105.896 35.2304L80.1872 110.312L62.1103 58.2712L105.896 35.2304ZM14.8474 88.8574C12.3655 88.8574 10.3481 87.0457 10.3481 84.8226C10.3481 82.6857 12.2128 80.9138 14.5952 80.7944L16.9113 80.6749L16.4467 78.4054C16.4202 78.2793 16.4069 78.1399 16.4069 77.9939C16.4069 76.6534 17.6479 75.5651 19.1676 75.5651C19.7516 75.5651 20.3156 75.7244 20.7868 76.023L22.5653 77.1511L23.5939 75.3195C24.941 72.9106 27.5424 71.3511 30.469 71.1653C30.6681 71.152 30.8672 71.1454 31.0662 71.1454C31.5706 71.1454 32.075 71.1852 32.5793 71.2715C35.3532 71.7294 37.5962 73.4017 38.7045 75.6315C38.7045 75.6315 38.7045 75.6315 38.7111 75.6381C39.3217 76.6933 39.6667 77.8944 39.6667 79.1553V80.7878H41.4452C43.1175 80.7878 44.5775 81.6107 45.3473 82.8383C45.3473 82.8383 45.3539 82.845 45.3606 82.8516C45.7255 83.4356 45.9379 84.1059 45.9379 84.8226C45.9379 87.0457 43.9205 88.8574 41.4452 88.8574H14.8474ZM6.10094 153.487L27.058 93.1178H41.6576C46.3494 93.1178 50.1652 89.5409 50.1652 85.1411C50.1652 83.4489 49.6011 81.8761 48.6388 80.5887C48.6322 80.582 48.6256 80.5688 48.6189 80.5621C47.4112 78.9628 45.6061 77.7882 43.4958 77.3502C43.4759 77.244 43.456 77.1379 43.4361 77.0317C43.3896 77.0184 43.3365 77.0118 43.2901 76.9985C43.2171 76.5406 43.1109 76.096 42.9782 75.658C42.9384 75.512 42.8919 75.366 42.8388 75.2266C42.6795 74.7488 42.4871 74.2843 42.2615 73.8331C42.2416 73.7999 42.2283 73.7667 42.2084 73.7335C40.8214 71.2848 38.512 69.347 35.6585 68.3383L35.7647 68.033L44.7036 42.2714L44.7301 42.1984C45.7853 38.7409 47.7164 35.6352 48.4995 35.6087C49.256 35.6087 51.154 38.5618 52.229 41.9263L78.0902 116.417L78.0968 116.431L65.4018 153.487H6.10094ZM69.6158 153.474L82.3042 116.417L111.032 32.5228L111.072 32.4034L111.576 30.9302C114.868 20.8631 122.354 4.88979 128.432 4.88979C134.113 4.88979 141.306 18.7528 145.428 29.5697C145.023 29.583 144.618 29.6096 144.226 29.656C144.286 29.6494 144.346 29.6494 144.406 29.6494C144.087 29.6693 143.768 29.7025 143.45 29.7423C143.277 29.7622 143.105 29.7821 142.939 29.8153C142.66 29.8551 142.388 29.9015 142.116 29.9546C141.871 30.0011 141.625 30.0608 141.386 30.1139C140.948 30.2201 140.517 30.3395 140.099 30.4723C139.933 30.5187 139.773 30.5718 139.614 30.6315C139.422 30.6979 139.229 30.7643 139.037 30.8439C138.964 30.8638 138.898 30.897 138.825 30.9302C138.645 30.9965 138.473 31.0695 138.294 31.1491C138.128 31.2221 137.955 31.2951 137.789 31.3748C137.597 31.4611 137.404 31.5606 137.212 31.6601C137.033 31.753 136.854 31.8526 136.674 31.9521C136.436 32.0849 136.203 32.2242 135.971 32.3702C135.706 32.5295 135.44 32.702 135.188 32.8945C135.075 32.9675 134.962 33.0471 134.856 33.1334C134.511 33.3789 134.186 33.651 133.867 33.9231C133.681 34.089 133.496 34.2615 133.316 34.4407C133.297 34.4606 133.277 34.4739 133.257 34.5004C133.184 34.5668 133.111 34.6398 133.038 34.7194C132.938 34.819 132.839 34.9185 132.739 35.0313C132.64 35.1309 132.547 35.237 132.454 35.3432C132.182 35.6618 131.916 35.9869 131.677 36.3254C131.611 36.4249 131.538 36.5178 131.472 36.6174C131.379 36.7501 131.286 36.8894 131.2 37.0354C131.087 37.1947 130.987 37.3606 130.894 37.5332C130.795 37.7123 130.695 37.8915 130.602 38.0707C130.509 38.2565 130.416 38.4489 130.33 38.6414C130.224 38.8803 130.124 39.1192 130.032 39.3647C129.965 39.5506 129.899 39.7364 129.839 39.9222C129.667 40.4796 129.527 41.057 129.434 41.6409C129.428 41.6409 129.428 41.6409 129.421 41.6409C129.414 41.6476 129.414 41.6609 129.414 41.6675C129.083 41.7139 128.757 41.7737 128.439 41.8467C128.227 41.8931 128.027 41.9462 127.822 41.9993C127.596 42.059 127.377 42.1254 127.158 42.1984C126.986 42.2581 126.82 42.3178 126.654 42.3842C126.481 42.4506 126.315 42.5169 126.156 42.5833C126.01 42.6496 125.871 42.716 125.731 42.7824C125.592 42.8487 125.453 42.9217 125.313 42.9947C125.167 43.0744 125.028 43.154 124.889 43.2403C124.835 43.2668 124.789 43.3 124.743 43.3265C124.703 43.3465 124.67 43.3664 124.63 43.3995C124.616 43.4062 124.603 43.4062 124.59 43.4194C124.563 43.4394 124.53 43.4593 124.504 43.4725C124.497 43.4792 124.497 43.4858 124.49 43.4858C124.437 43.519 124.384 43.5522 124.338 43.5854C124.305 43.6053 124.271 43.6252 124.245 43.6517C124.225 43.6583 124.205 43.6716 124.192 43.6915C124.099 43.7513 124.013 43.811 123.926 43.8773C123.873 43.9105 123.827 43.9437 123.78 43.9835C123.515 44.1892 123.263 44.4016 123.017 44.6272C122.884 44.7467 122.758 44.8728 122.632 45.0055C122.513 45.1316 122.387 45.2643 122.274 45.397C122.154 45.5298 122.042 45.6757 121.929 45.8151C121.869 45.8947 121.809 45.9677 121.756 46.0474C121.597 46.2531 121.458 46.4655 121.332 46.6778C120.555 47.9652 120.117 49.4252 120.117 50.9714C120.117 56.1875 125.127 60.4346 131.279 60.4346H156.065L156.079 60.4744L187.926 153.474H69.6158Z" fill="white"/>
</svg>
