<svg width="85" height="85" viewBox="0 0 85 85" fill="none" xmlns="http://www.w3.org/2000/svg">
<path d="M40.1875 23H45.8125C46.7477 23 47.5 23.7523 47.5 24.6875V36.5H53.6664C54.918 36.5 55.5437 38.0117 54.6578 38.8977L43.9633 49.5992C43.4359 50.1266 42.5711 50.1266 42.0437 49.5992L31.3352 38.8977C30.4492 38.0117 31.075 36.5 32.3266 36.5H38.5V24.6875C38.5 23.7523 39.2523 23 40.1875 23ZM61 49.4375V57.3125C61 58.2477 60.2477 59 59.3125 59H26.6875C25.7523 59 25 58.2477 25 57.3125V49.4375C25 48.5023 25.7523 47.75 26.6875 47.75H37.0023L40.4477 51.1953C41.8609 52.6086 44.1391 52.6086 45.5523 51.1953L48.9977 47.75H59.3125C60.2477 47.75 61 48.5023 61 49.4375ZM52.2812 55.625C52.2812 54.8516 51.6484 54.2188 50.875 54.2188C50.1016 54.2188 49.4688 54.8516 49.4688 55.625C49.4688 56.3984 50.1016 57.0312 50.875 57.0312C51.6484 57.0312 52.2812 56.3984 52.2812 55.625ZM56.7812 55.625C56.7812 54.8516 56.1484 54.2188 55.375 54.2188C54.6016 54.2188 53.9688 54.8516 53.9688 55.625C53.9688 56.3984 54.6016 57.0312 55.375 57.0312C56.1484 57.0312 56.7812 56.3984 56.7812 55.625Z" fill="white"/>
<circle cx="42.5" cy="42.5" r="41" stroke="white" stroke-width="3"/>
</svg>
