<svg width="66" height="66" viewBox="0 0 66 66" fill="none" xmlns="http://www.w3.org/2000/svg">
<path d="M33.0074 16.0784C23.6429 16.0784 16.0896 23.6335 16.0896 33C16.0896 42.3665 23.6429 49.9216 33.0074 49.9216C42.3718 49.9216 49.9252 42.3665 49.9252 33C49.9252 23.6335 42.3718 16.0784 33.0074 16.0784ZM33.0074 44.0012C26.9558 44.0012 22.0086 39.0676 22.0086 33C22.0086 26.9324 26.9411 21.9988 33.0074 21.9988C39.0736 21.9988 44.0061 26.9324 44.0061 33C44.0061 39.0676 39.0589 44.0012 33.0074 44.0012ZM54.5632 15.3863C54.5632 17.5806 52.7963 19.3331 50.6172 19.3331C48.4233 19.3331 46.6712 17.5659 46.6712 15.3863C46.6712 13.2066 48.438 11.4394 50.6172 11.4394C52.7963 11.4394 54.5632 13.2066 54.5632 15.3863ZM65.7681 19.3921C65.5178 14.105 64.3104 9.42173 60.438 5.5632C56.5804 1.70467 51.8982 0.497043 46.6123 0.231954C41.1644 -0.0773179 24.8356 -0.0773179 19.3877 0.231954C14.1166 0.482316 9.43436 1.68995 5.56196 5.54848C1.68957 9.40701 0.496933 14.0903 0.231902 19.3773C-0.0773006 24.8264 -0.0773006 41.1589 0.231902 46.6079C0.482209 51.895 1.68957 56.5783 5.56196 60.4368C9.43436 64.2953 14.1018 65.503 19.3877 65.768C24.8356 66.0773 41.1644 66.0773 46.6123 65.768C51.8982 65.5177 56.5804 64.3101 60.438 60.4368C64.2957 56.5783 65.5031 51.895 65.7681 46.6079C66.0773 41.1589 66.0773 24.8411 65.7681 19.3921ZM58.7301 52.4546C57.5816 55.3412 55.3583 57.565 52.4577 58.7284C48.1141 60.4515 37.8074 60.0539 33.0074 60.0539C28.2074 60.0539 17.8859 60.4368 13.5571 58.7284C10.6712 57.5797 8.44785 55.3559 7.28466 52.4546C5.56196 48.1101 5.95951 37.8011 5.95951 33C5.95951 28.1989 5.57669 17.8752 7.28466 13.5454C8.43313 10.6588 10.6564 8.43501 13.5571 7.27156C17.9006 5.54848 28.2074 5.94611 33.0074 5.94611C37.8074 5.94611 48.1288 5.5632 52.4577 7.27156C55.3436 8.42028 57.5669 10.6441 58.7301 13.5454C60.4528 17.8899 60.0552 28.1989 60.0552 33C60.0552 37.8011 60.4528 48.1248 58.7301 52.4546Z" fill="#1D1D1B"/>
</svg>
