<svg width="286" height="282" viewBox="0 0 286 282" fill="none" xmlns="http://www.w3.org/2000/svg">
<path d="M196.257 114.79C187.575 114.135 178.483 113.48 168.737 112.579C137.039 109.876 114.187 107.337 100.591 105.617C54.6412 100.047 43.4201 96.1154 40.7172 94.3954C43.0106 92.9211 51.7745 89.6448 84.7008 84.6485C119.593 79.4066 174.961 73.2636 249.168 66.3835C249.66 66.3016 248.923 58.1928 248.513 58.2748L210.017 31L188.885 45.9888L167.754 31L146.622 45.9888L125.49 31L104.358 45.9888L83.2265 31L43.9934 58.6843C42.8467 59.5033 42.601 60.9777 43.4201 62.1243C43.9115 62.7796 44.6487 63.1891 45.4677 63.1891C45.9592 63.1891 46.4506 63.0253 46.8601 62.6977L82.9808 37.143L104.113 52.1318L125.244 37.143L146.376 52.1318L167.508 37.143L188.64 52.1318L209.772 37.143L240.978 59.0119C160.136 66.8749 100.836 74.3284 64.7976 81.1266C24.8274 88.7439 19.3397 94.2316 19.5035 99.1459C19.6673 107.828 42.6829 114.053 107.307 122.981C144.902 128.141 177.501 129.697 201.253 130.762C213.785 131.335 223.614 131.826 230.821 132.646C239.585 133.628 241.469 134.857 241.879 135.348C240.65 137.806 227.955 141.901 217.716 145.259C185.691 155.661 137.366 171.469 125.244 208.982C121.149 221.596 121.559 235.765 126.555 251L131.224 249.526C126.637 235.274 126.227 222.169 129.913 210.538C141.298 175.401 188.148 160.084 219.273 149.928C237.62 143.949 247.694 140.672 246.793 134.611C245.81 127.977 232.869 127.322 201.417 125.847C177.746 124.701 145.229 123.226 107.88 118.066C93.8743 116.182 72.7425 113.234 54.887 109.63C24.8274 103.487 24.3359 99.2278 24.3359 99.064C24.3359 98.9002 24.5817 96.7707 35.3114 93.2487C35.1476 93.6582 35.1476 94.1497 35.1476 94.5592C35.2295 97.7535 38.7514 100.375 55.5422 103.815C65.5348 105.862 79.4588 107.992 97.0686 110.121C111.075 111.841 134.827 114.544 168.245 117.411C178.074 118.23 187.084 118.967 195.847 119.622C230.002 122.243 256.949 124.291 258.506 132.072C259.489 136.741 250.315 142.638 239.749 149.436C221.402 161.231 196.257 177.448 188.64 206.607C185.2 219.466 185.691 233.554 189.95 248.461L194.701 247.069C190.687 233.063 190.278 219.876 193.472 207.835C200.68 180.479 224.842 164.917 242.534 153.532C255.639 145.095 265.058 139.034 263.502 131.007C261.045 119.704 238.029 117.902 196.257 114.79Z" fill="white"/>
<path d="M158.252 163.278C164.313 163.278 169.227 158.937 169.227 153.532C169.227 149.682 166.688 146.242 162.92 144.686C161.61 136.823 154.238 130.844 145.228 130.844C139.495 130.844 134.089 133.383 130.731 137.56C130.158 137.478 129.502 137.396 128.929 137.396C123.933 137.396 119.838 141.082 119.838 145.669C119.838 146.16 119.919 146.57 120.001 147.061C116.725 148.372 114.514 151.32 114.514 154.842C114.514 159.511 118.609 163.278 123.605 163.278H158.252ZM119.346 154.842C119.346 152.958 121.148 151.402 123.36 151.32L128.11 151.238L125.243 147.389C124.834 146.897 124.67 146.324 124.67 145.669C124.67 143.867 126.554 142.31 128.847 142.31C129.503 142.31 130.158 142.392 130.731 142.638L132.615 143.457L133.68 141.655C135.973 137.969 140.314 135.758 145.065 135.758C152.027 135.758 157.76 140.509 158.006 146.57L158.088 148.372L159.89 148.781C162.429 149.436 164.149 151.32 164.149 153.45C164.149 156.153 161.446 158.282 158.088 158.282H123.441C121.23 158.364 119.346 156.808 119.346 154.842Z" fill="white"/>
<path d="M106.979 175.974C107.307 174.827 107.552 173.681 107.552 172.452C107.552 165.654 101.491 160.084 94.0379 160.084C92.8093 160.084 91.5807 160.248 90.3521 160.576C85.192 153.368 76.3462 148.945 66.9269 148.945C52.4295 148.945 40.5532 158.938 38.9969 172.042C32.854 174.336 28.6768 179.742 28.6768 185.885C28.6768 194.075 36.1302 200.792 45.3037 200.792H102.966C110.419 200.792 116.48 195.14 116.48 188.096C116.48 182.363 112.467 177.53 106.979 175.974ZM102.966 195.877H45.3037C38.8331 195.877 33.5911 191.372 33.5911 185.885C33.5911 181.462 37.0312 177.53 41.9456 176.302L43.7475 175.81L43.8294 174.008C44.3208 162.705 54.4772 153.859 67.0088 153.859C75.4452 153.859 83.2263 158.037 87.3216 164.753L88.3864 166.555L90.3521 165.736C91.4988 165.244 92.8093 164.999 94.1198 164.999C98.8704 164.999 102.72 168.357 102.72 172.452C102.72 173.844 102.229 175.237 101.409 176.384L98.6246 180.151L103.293 180.233C107.88 180.315 111.648 183.837 111.648 188.014C111.566 192.355 107.716 195.877 102.966 195.877Z" fill="white"/>
<path d="M259.816 88.5801C258.424 80.1438 250.315 73.7551 240.486 73.7551C234.098 73.7551 228.2 76.5399 224.515 81.0448C223.777 80.881 223.122 80.7991 222.385 80.7991C216.979 80.7991 212.556 84.7306 212.556 89.4811C212.556 90.0545 212.638 90.5459 212.72 91.0373C209.116 92.3478 206.577 95.5422 206.577 99.3099C206.577 104.224 211 108.238 216.406 108.238H254.902C261.454 108.238 266.778 103.569 266.778 97.9175C266.86 93.9041 264.075 90.2183 259.816 88.5801ZM254.902 103.405H216.406C213.703 103.405 211.492 101.603 211.492 99.3918C211.492 97.2622 213.621 95.4603 216.242 95.3784L221.075 95.2964L218.126 91.4469C217.634 90.8735 217.471 90.2183 217.471 89.563C217.471 87.5154 219.682 85.7953 222.385 85.7953C223.204 85.7953 223.941 85.9592 224.597 86.2049L226.48 86.942L227.545 85.222C230.084 81.2086 235.08 78.6695 240.404 78.6695C248.267 78.6695 254.738 83.9115 254.984 90.5459L255.066 92.3478L256.868 92.7574C259.734 93.4945 261.782 95.6241 261.782 97.9175C261.946 101.03 258.751 103.405 254.902 103.405Z" fill="white"/>
<path d="M282 141C282 216.904 219.803 278.5 143 278.5C66.1974 278.5 4 216.904 4 141C4 65.0957 66.1974 3.5 143 3.5C219.803 3.5 282 65.0957 282 141Z" stroke="white" stroke-width="7"/>
</svg>
