<svg width="256" height="228" viewBox="0 0 256 228" fill="none" xmlns="http://www.w3.org/2000/svg">
<path d="M182.977 86.8561C174.019 86.18 164.638 85.5039 154.581 84.5743C121.874 81.7853 98.2955 79.1655 84.2665 77.3907C36.8551 71.6439 25.2769 67.5873 22.488 65.8125C24.8543 64.2913 33.8971 60.9108 67.8711 55.7556C103.873 50.3468 161.004 44.0084 237.572 36.9093C238.079 36.8248 237.318 28.4581 236.896 28.5426L197.175 0.400024L175.371 15.8658L153.567 0.400024L131.762 15.8658L109.958 0.400024L88.154 15.8658L66.3499 0.400024L25.8685 28.9652C24.6853 29.8103 24.4318 31.3315 25.2769 32.5147C25.784 33.1908 26.5446 33.6133 27.3897 33.6133C27.8968 33.6133 28.4038 33.4443 28.8264 33.1063L66.0963 6.73845L87.9005 22.2042L109.705 6.73845L131.509 22.2042L153.313 6.73845L175.117 22.2042L196.921 6.73845L229.121 29.3032C145.707 37.4164 84.52 45.107 47.3346 52.1215C6.09259 59.9812 0.430267 65.6435 0.599292 70.7142C0.768316 79.6725 24.5163 86.0955 91.1965 95.3073C129.988 100.632 163.624 102.237 188.132 103.336C201.062 103.928 211.204 104.435 218.641 105.28C227.684 106.294 229.628 107.562 230.05 108.069C228.782 110.604 215.683 114.83 205.119 118.295C172.075 129.028 122.212 145.339 109.705 184.045C105.479 197.06 105.902 211.681 111.057 227.4L115.874 225.879C111.141 211.174 110.719 197.652 114.522 185.651C126.269 149.395 174.61 133.591 206.725 123.112C225.656 116.942 236.051 113.562 235.121 107.308C234.107 100.463 220.754 99.7865 188.301 98.2652C163.877 97.0821 130.326 95.5609 91.7881 90.2366C77.3364 88.2928 55.5323 85.2504 37.1086 81.5318C6.09259 75.1934 5.58552 70.7988 5.58552 70.6297C5.58552 70.4607 5.83906 68.2634 16.9102 64.6293C16.7411 65.0519 16.7411 65.559 16.7411 65.9816C16.8256 69.2775 20.4597 71.9819 37.7847 75.5314C48.0952 77.6442 62.4623 79.8416 80.6324 82.0389C95.084 83.8136 119.593 86.6025 154.074 89.5605C164.215 90.4056 173.511 91.1662 182.554 91.8423C217.796 94.5467 245.6 96.6595 247.206 104.688C248.22 109.505 238.755 115.59 227.853 122.605C208.922 134.775 182.977 151.508 175.117 181.594C171.568 194.863 172.075 209.399 176.469 224.78L181.371 223.343C177.23 208.892 176.807 195.285 180.103 182.862C187.54 154.635 212.472 138.578 230.726 126.83C244.248 118.126 253.967 111.872 252.361 103.59C249.826 91.9268 226.078 90.0676 182.977 86.8561Z" fill="white"/>
<path d="M143.762 136.887C150.016 136.887 155.087 132.408 155.087 126.83C155.087 122.858 152.467 119.309 148.58 117.703C147.227 109.59 139.621 103.421 130.325 103.421C124.409 103.421 118.831 106.04 115.366 110.351C114.775 110.266 114.099 110.182 113.507 110.182C108.352 110.182 104.126 113.985 104.126 118.717C104.126 119.224 104.211 119.647 104.295 120.154C100.915 121.506 98.6328 124.549 98.6328 128.183C98.6328 133 102.858 136.887 108.014 136.887H143.762ZM103.619 128.183C103.619 126.239 105.478 124.633 107.76 124.549L112.662 124.464L109.704 120.492C109.281 119.985 109.112 119.393 109.112 118.717C109.112 116.858 111.056 115.252 113.422 115.252C114.099 115.252 114.775 115.337 115.366 115.59L117.31 116.435L118.409 114.576C120.775 110.773 125.254 108.491 130.156 108.491C137.339 108.491 143.255 113.393 143.509 119.647L143.593 121.506L145.453 121.929C148.072 122.605 149.847 124.549 149.847 126.746C149.847 129.535 147.058 131.732 143.593 131.732H107.845C105.563 131.817 103.619 130.211 103.619 128.183Z" fill="white"/>
<path d="M90.8582 149.987C91.1962 148.804 91.4498 147.62 91.4498 146.353C91.4498 139.338 85.1959 133.591 77.5053 133.591C76.2376 133.591 74.9699 133.76 73.7022 134.098C68.3779 126.661 59.2506 122.098 49.5317 122.098C34.573 122.098 22.3187 132.408 20.713 145.93C14.3746 148.296 10.0645 153.874 10.0645 160.213C10.0645 168.664 17.7551 175.594 27.2204 175.594H86.7171C94.4077 175.594 100.662 169.763 100.662 162.495C100.662 156.579 96.5205 151.592 90.8582 149.987ZM86.7171 170.523H27.2204C20.544 170.523 15.1352 165.875 15.1352 160.213C15.1352 155.649 18.6847 151.592 23.7554 150.325L25.6147 149.818L25.6992 147.958C26.2063 136.296 36.6858 127.168 49.6162 127.168C58.321 127.168 66.3496 131.479 70.5752 138.409L71.6739 140.268L73.7022 139.423C74.8854 138.916 76.2376 138.662 77.5898 138.662C82.4915 138.662 86.4636 142.127 86.4636 146.353C86.4636 147.789 85.9565 149.226 85.1114 150.409L82.2379 154.297L87.0551 154.381C91.7878 154.466 95.6754 158.1 95.6754 162.41C95.5909 166.889 91.6188 170.523 86.7171 170.523Z" fill="white"/>
<path d="M248.558 59.8121C247.121 51.1073 238.755 44.5154 228.613 44.5154C222.021 44.5154 215.936 47.3888 212.133 52.037C211.373 51.868 210.696 51.7834 209.936 51.7834C204.358 51.7834 199.794 55.84 199.794 60.7417C199.794 61.3333 199.879 61.8404 199.963 62.3475C196.245 63.6997 193.625 66.9957 193.625 70.8832C193.625 75.954 198.189 80.0951 203.766 80.0951H243.487C250.248 80.0951 255.742 75.2779 255.742 69.4465C255.826 65.3054 252.953 61.5023 248.558 59.8121ZM243.487 75.1088H203.766C200.978 75.1088 198.696 73.2496 198.696 70.9677C198.696 68.7704 200.893 66.9111 203.597 66.8266L208.584 66.7421L205.541 62.77C205.034 62.1784 204.865 61.5023 204.865 60.8262C204.865 58.7134 207.147 56.9387 209.936 56.9387C210.781 56.9387 211.542 57.1077 212.218 57.3613L214.161 58.1219L215.26 56.3471C217.88 52.206 223.035 49.5861 228.529 49.5861C236.642 49.5861 243.318 54.9949 243.572 61.8404L243.656 63.6997L245.516 64.1222C248.473 64.8828 250.586 67.0802 250.586 69.4465C250.755 72.658 247.459 75.1088 243.487 75.1088Z" fill="white"/>
</svg>
